<svg width="25" height="19" viewBox="0 0 25 19" fill="none" xmlns="http://www.w3.org/2000/svg">
<mask id="mask0_1683_136" style="mask-type:luminance" maskUnits="userSpaceOnUse" x="0" y="0" width="25" height="19">
<path d="M0 0H24.9976V18.75H0V0Z" fill="white"/>
</mask>
<g mask="url(#mask0_1683_136)">
<path fill-rule="evenodd" clip-rule="evenodd" d="M-1.56445 0H26.5605V18.75H-1.56445V0Z" fill="#165D31"/>
<path fill-rule="evenodd" clip-rule="evenodd" d="M5.52247 5.31371C5.49317 5.75316 5.44923 6.5222 5.82643 6.60277C6.27687 6.64671 6.02784 5.84105 6.19264 5.69457C6.22193 5.62132 6.27686 5.62132 6.28053 5.71288V6.39769C6.28053 6.61742 6.42701 6.68333 6.53687 6.72728C6.65406 6.71996 6.73463 6.72728 6.77857 6.83714L6.83717 8.02C6.83717 8.02 7.10816 8.10057 7.12281 7.35716C7.1338 6.91771 7.03492 6.55516 7.09352 6.47093C7.09352 6.3867 7.20338 6.38304 7.27662 6.42332C7.39381 6.50389 7.44508 6.60643 7.62818 6.56981C7.9065 6.48924 8.07496 6.35374 8.07862 6.14134C8.07313 5.93261 8.02969 5.72662 7.95045 5.53343C7.9651 5.49681 7.89918 5.39793 7.91383 5.36131C7.96144 5.44188 8.03834 5.43456 8.05299 5.36131C8.00538 5.2075 7.93214 5.05736 7.81495 4.9951C7.71607 4.90721 7.56959 4.92186 7.52198 5.10497C7.49269 5.31371 7.59522 5.55907 7.74537 5.76415C7.77833 5.84105 7.82228 5.97289 7.80396 6.09007C7.72096 6.13402 7.64405 6.11937 7.57325 6.04613C7.57325 6.04613 7.35353 5.88133 7.35353 5.84105C7.41212 5.46751 7.36451 5.42357 7.33155 5.31737C7.30958 5.17455 7.24 5.12694 7.18507 5.03172C7.13014 4.97313 7.05689 4.97313 7.02027 5.03172C6.9214 5.20018 6.969 5.56273 7.03858 5.72752C7.08985 5.87767 7.16676 5.97289 7.13014 5.97289C7.10084 6.05711 7.03858 6.03514 6.99098 5.93626C6.93755 5.72815 6.9117 5.51391 6.91407 5.29906C6.89576 5.1306 6.87379 4.77171 6.76026 4.6765C6.69435 4.58861 6.59547 4.63255 6.55885 4.71312C6.54911 4.87672 6.55279 5.04084 6.56983 5.20384C6.64308 5.47484 6.66871 5.71654 6.70533 5.9912C6.71632 6.36107 6.49293 6.15233 6.50392 5.96556C6.55196 5.73076 6.54821 5.48831 6.49293 5.25511C6.45631 5.1599 6.41603 5.13792 6.32447 5.15257C6.25489 5.15257 6.07545 5.34666 6.02418 5.67625C6.02418 5.67625 5.98023 5.84471 5.96192 5.99486C5.93629 6.16332 5.82643 6.28783 5.74586 5.97289C5.67994 5.74217 5.636 5.18187 5.52613 5.31371H5.52247Z" fill="white"/>
<path fill-rule="evenodd" clip-rule="evenodd" d="M6.74805 7.11182L5.57617 7.67578C5.58716 7.40845 6.12915 6.92871 6.50269 6.92505C6.74072 6.92871 6.68213 7.0166 6.74438 7.11182H6.74805Z" fill="white"/>
<path fill-rule="evenodd" clip-rule="evenodd" d="M6.53905 7.47804C5.92382 9.07105 7.98559 9.29444 8.2163 7.54395C8.23827 7.47071 8.32616 7.40113 8.34081 7.51832C8.2932 9.10401 6.74413 9.21021 6.48046 8.71217C6.41851 8.54078 6.38751 8.35974 6.38891 8.1775C6.35229 7.86622 6.18749 7.98707 6.16186 8.29469C6.13622 8.46681 6.14355 8.51441 6.14355 8.67921C6.22411 9.93165 8.21996 9.39332 8.54589 8.3606C8.71801 7.78932 8.51659 7.36817 8.60815 7.36817C8.8059 7.58058 9.08422 7.39747 9.14648 7.32423C9.17211 7.28761 9.23803 7.26197 9.28197 7.30958C9.43578 7.41944 9.70678 7.36817 9.76537 7.17408C9.79955 6.97877 9.82152 6.78101 9.83129 6.58082C9.70312 6.61744 9.61156 6.64308 9.60058 6.69801L9.57494 6.86646C9.56396 6.9214 9.45776 6.9214 9.45043 6.85182C9.40282 6.63209 9.20507 6.60645 9.08422 6.94337C9.00732 7.00929 8.86083 7.02393 8.84618 6.92506C8.86449 6.69801 8.77294 6.66871 8.58984 6.77491L8.41405 5.44923C8.4873 5.44923 8.56054 5.50416 8.63012 5.41627C8.55688 5.17823 8.39208 4.69483 8.30053 4.65821C8.26025 4.60694 8.22362 4.6399 8.16503 4.65455C8.06982 4.68385 7.98193 4.76441 8.01122 4.92555C8.12109 5.61402 8.19433 6.1377 8.30785 6.82984C8.32616 6.90675 8.26025 7.01295 8.17235 7.00196C8.02587 6.90308 7.98925 6.70167 7.7329 6.70899C7.5498 6.70899 7.34472 6.91041 7.31908 7.10084C7.28612 7.25465 7.27514 7.41944 7.31908 7.55128C7.44726 7.70509 7.60107 7.69044 7.73656 7.65748C7.84643 7.60987 7.93798 7.50001 7.97826 7.52564C8.0039 7.5586 7.98193 7.92481 7.45458 8.20313C7.13598 8.34962 6.87963 8.37892 6.74413 8.11891C6.6599 7.95411 6.75146 7.33521 6.53905 7.47804Z" fill="white"/>
<path fill-rule="evenodd" clip-rule="evenodd" d="M9.16555 5.85938C9.2864 5.81543 9.87233 5.1416 9.87233 5.1416L9.78444 5.06836C9.75271 5.0415 9.75271 5.01465 9.78444 4.98779C9.93093 4.8999 9.88332 4.7168 9.81008 4.62891C9.76013 4.60548 9.70553 4.59364 9.65036 4.59427C9.59519 4.59491 9.54087 4.608 9.49148 4.63257C9.38894 4.73145 9.36696 4.88892 9.44753 4.98413C9.52443 5.02075 9.60134 5.10132 9.55007 5.14526C9.30837 5.40161 8.65285 5.84473 8.72976 5.85938C8.74441 5.88135 9.1509 5.88135 9.16189 5.85938H9.16555ZM5.6133 8.23975C5.39358 8.59131 5.37526 9.11499 5.49611 9.27246C5.56203 9.3457 5.66823 9.37866 5.74514 9.35303C5.8843 9.29443 5.94655 9.01245 5.91359 8.91357C5.86965 8.84033 5.8257 8.83179 5.78176 8.88794C5.68654 9.08569 5.64626 8.95019 5.63527 8.84033C5.62478 8.65427 5.6346 8.46762 5.66457 8.28369C5.69021 8.12988 5.66457 8.17383 5.6133 8.23975ZM15.0286 7.67944C14.8162 7.21802 14.5196 6.76392 14.428 6.5918C14.1426 6.14065 13.8396 5.70086 13.5198 5.27344C13.2927 5.00244 13.8933 5.38696 13.4466 4.84497L13.1206 4.57031C13.0474 4.51904 12.8716 4.42383 12.8423 4.57764C12.8277 4.7168 12.835 4.79004 12.857 4.90356C12.8753 4.97681 12.9851 5.10498 13.0401 5.17822C13.7908 6.17265 14.4503 7.23287 15.0103 8.34595C15.1055 8.29834 15.0835 7.75635 15.0286 7.67944Z" fill="white"/>
<path fill-rule="evenodd" clip-rule="evenodd" d="M14.0938 9.21022C14.0498 9.25782 14.1963 9.45924 14.3868 9.45924C14.7017 9.42262 14.98 9.24684 15.2364 8.77809C15.3405 8.62215 15.407 8.44412 15.4305 8.25807C15.4615 7.36906 15.3902 6.47943 15.2181 5.6067C15.2071 5.53346 15.2181 5.44557 15.2254 5.4236C15.2473 5.39796 15.3169 5.4236 15.3536 5.36134C15.4085 5.30641 15.2071 4.84864 15.0972 4.67652C15.0606 4.59596 15.0423 4.54469 14.9764 4.68385C14.8968 4.8374 14.8589 5.00913 14.8665 5.1819C15.0166 6.2256 15.0642 7.13746 15.1595 8.18116C15.1704 8.2837 15.1558 8.43019 15.0862 8.48878C14.81 8.79661 14.4718 9.04248 14.0938 9.21022ZM18.3601 9.20655C18.1331 9.33839 18.1331 9.48854 18.3162 9.4922C18.6311 9.45558 19.0047 9.42994 19.261 9.04176C19.3516 8.85893 19.4039 8.65956 19.4148 8.45582C19.4609 7.5805 19.4032 6.7028 19.2427 5.84108C19.2354 5.76783 19.2024 5.59571 19.2134 5.57374C19.2354 5.52247 19.3379 5.5774 19.3745 5.51881C19.4258 5.46388 19.1072 5.05372 18.9937 4.87794C18.9571 4.79737 18.9424 4.7461 18.8728 4.88527C18.7983 5.04001 18.7752 5.21451 18.8069 5.38331C18.9754 6.51857 19.0999 7.36818 19.1255 8.37159C19.1109 8.46681 19.1072 8.51808 19.0633 8.63893C18.9644 8.76344 18.8545 8.92457 18.752 9.00148C18.6494 9.07472 18.4297 9.14796 18.3601 9.20655Z" fill="white"/>
<path fill-rule="evenodd" clip-rule="evenodd" d="M18.5289 8.19211C18.5313 7.926 18.5301 7.69407 18.5252 7.49631C18.5229 7.32573 18.4855 7.15746 18.4154 7.00193C18.3495 6.85178 18.3897 6.73093 18.3568 6.5698C18.3275 6.40867 18.3348 6.16697 18.2909 5.9802C18.2762 5.90696 18.2396 5.66892 18.2506 5.64329C18.2689 5.59202 18.3385 5.64329 18.3751 5.58469C18.4264 5.52976 18.192 4.92551 18.0748 4.75339C18.0345 4.67649 17.954 4.70212 17.8624 4.82664C17.7708 4.91086 17.8038 5.09763 17.8404 5.27707C18.0638 6.45994 18.2359 7.53293 18.1993 8.6572C18.1847 8.75242 18.5289 8.37156 18.5289 8.19211ZM16.8553 6.72727C16.7125 6.71995 16.4159 6.44529 16.328 6.28782C16.3136 6.24933 16.3075 6.20825 16.31 6.16724C16.3125 6.12623 16.3236 6.08621 16.3426 6.04978C16.3976 6.01316 16.4781 5.97654 16.5404 6.01316C16.5404 6.01316 16.6026 6.10105 16.5916 6.11204C16.6649 6.14866 16.7015 6.13035 16.7088 6.09739C16.7125 6.04246 16.6869 6.0095 16.6869 5.9509C16.7198 5.78245 16.9066 5.75681 16.9798 5.86301C17.0311 5.92893 17.0531 6.06443 17.0567 6.15598C17.0567 6.20359 16.9835 6.14866 16.9359 6.15598C16.8956 6.17063 16.8846 6.2219 16.881 6.26584C16.8736 6.38669 16.859 6.58079 16.8553 6.72361V6.72727ZM14.2259 8.48508C14.2625 8.1262 14.2113 7.48533 14.2076 7.27292C14.188 6.72667 14.1428 6.18164 14.0721 5.63962C14.0282 5.33201 14.1966 5.67258 14.1747 5.49314C14.1197 5.18918 13.9513 4.98044 13.7499 4.70579C13.6876 4.61423 13.6876 4.59592 13.5887 4.72776C13.4789 4.97312 13.5741 5.14524 13.6034 5.33933C13.7462 5.96921 13.8304 6.54783 13.8707 7.12278C13.9129 7.72004 13.9178 8.31934 13.8854 8.91721C13.9952 8.92087 14.1637 8.74509 14.2259 8.48508Z" fill="white"/>
<path fill-rule="evenodd" clip-rule="evenodd" d="M19.0167 7.91017C18.764 7.48537 18.3868 7.03127 18.2843 6.85915C17.9447 6.38493 17.588 5.9232 17.2149 5.47487C16.9037 5.14528 17.3614 5.41994 17.1563 5.16359C16.9842 4.97682 16.9366 4.91457 16.7865 4.80104C16.7132 4.75344 16.6693 4.66188 16.64 4.81935C16.6283 4.95575 16.6259 5.09278 16.6327 5.22951C16.6327 5.29177 16.6986 5.41262 16.7572 5.48586C17.5152 6.4197 18.3465 7.37184 19.013 8.56935C19.1082 8.52175 19.0753 7.98342 19.013 7.91017H19.0167Z" fill="white"/>
<path fill-rule="evenodd" clip-rule="evenodd" d="M7.6135 7.13014C7.59518 7.1631 7.5549 7.20338 7.56955 7.24367C7.59396 7.27785 7.6257 7.29371 7.66476 7.29127C7.70505 7.29127 7.76364 7.30226 7.77463 7.28029C7.79904 7.25099 7.80637 7.21071 7.7966 7.15944C7.75266 7.04957 7.63547 7.09352 7.6135 7.13014Z" fill="#165D31"/>
<path fill-rule="evenodd" clip-rule="evenodd" d="M16.0947 13.2751C16.4316 13.2898 16.6514 13.2934 16.948 13.3264L17.2996 13.2898C17.6877 13.2532 17.7024 13.8428 17.7024 13.8428C17.7024 14.1907 17.5669 14.209 17.3948 14.2456C17.2959 14.2602 17.2483 14.187 17.1934 14.1138C17.1105 14.1403 17.0223 14.1453 16.937 14.1284C16.7954 14.1235 16.655 14.1174 16.5159 14.1101C16.3694 14.0991 16.2888 14.1284 16.1387 14.1138C16.1094 14.1614 16.0654 14.2273 15.9775 14.209C15.9043 14.198 15.8127 13.9893 15.8384 13.8245C15.8933 13.7073 15.875 13.7476 15.875 13.6963C14.498 13.6597 13.1101 13.5974 11.7625 13.6157C10.7078 13.6194 9.66772 13.6633 8.62402 13.7073C8.06738 13.6999 7.64258 13.6121 7.34961 13.1836C7.37891 13.1836 8.77051 13.2605 9.177 13.2349C9.92773 13.2275 10.6162 13.1653 11.3816 13.1433C12.8904 13.1689 14.3882 13.1689 15.897 13.2751C15.7505 13.1763 15.7505 12.9455 15.9702 12.887C15.9885 12.8723 15.9995 13.0005 16.0325 12.9968C16.2119 12.9858 16.1313 13.2275 16.0947 13.2751ZM10.0303 4.95483C9.80322 5.60668 10.1621 6.32446 10.4111 6.25488C10.5942 6.32812 10.7041 5.98388 10.7773 5.61034C10.8323 5.50414 10.8689 5.49316 10.8945 5.54809C10.8872 6.04613 10.9312 6.15966 11.0593 6.30981C11.345 6.52953 11.583 6.3391 11.6013 6.32079L11.821 6.0974C11.8748 6.04369 11.937 6.04003 12.0078 6.08642C12.0774 6.14867 12.0664 6.25488 12.2129 6.32812C12.3374 6.37939 12.5974 6.34277 12.6597 6.23656C12.7402 6.09374 12.7622 6.04613 12.7988 5.99487C12.8574 5.91796 12.9563 5.95092 12.9563 5.97655C12.9453 6.0205 12.8867 6.06078 12.927 6.14135C13.0002 6.19262 13.0149 6.15966 13.0552 6.14867C13.2017 6.07543 13.3115 5.76049 13.3115 5.76049C13.3152 5.6433 13.2493 5.65063 13.2053 5.67992L13.0918 5.75683C13.0186 5.76781 12.8831 5.81542 12.8135 5.70922C12.7439 5.58471 12.7439 5.40527 12.6926 5.27709C12.6926 5.26977 12.5974 5.07568 12.6853 5.06469C12.7292 5.07201 12.8208 5.09765 12.8354 5.02074C12.8794 4.94384 12.7402 4.72778 12.6414 4.61791C12.5571 4.52636 12.4399 4.51537 12.3264 4.61059C12.2458 4.68383 12.2568 4.7644 12.2422 4.8413C12.2289 4.89645 12.2286 4.95394 12.2413 5.00923C12.254 5.06452 12.2794 5.1161 12.3154 5.1599C12.396 5.31371 12.5388 5.51513 12.4912 5.80077C12.4912 5.80077 12.407 5.93261 12.2605 5.9143C12.1982 5.90331 12.0994 5.87768 12.0481 5.48217C12.0078 5.1892 12.0554 4.77172 11.9309 4.57763C11.8833 4.45678 11.8503 4.34325 11.7405 4.54467C11.7112 4.62524 11.583 4.74609 11.6746 4.99145C11.7612 5.21255 11.7865 5.45295 11.7478 5.68725C11.6929 5.76781 11.6819 5.79345 11.6123 5.87035C11.5171 5.98022 11.4109 5.95092 11.3303 5.91064C11.2571 5.86303 11.1985 5.83739 11.1619 5.6726C11.1692 5.41625 11.1838 4.99511 11.1362 4.90722C11.0667 4.76806 10.9531 4.81933 10.9055 4.86327C10.6882 5.10561 10.5424 5.40354 10.4844 5.72387C10.4185 5.93627 10.3489 5.87402 10.3013 5.78979C10.1841 5.67992 10.1731 4.812 10.0303 4.95483Z" fill="white"/>
<path fill-rule="evenodd" clip-rule="evenodd" d="M10.7174 6.37573C10.8237 6.30249 10.776 6.25122 10.9299 6.40502C11.1284 6.75629 11.2436 7.14844 11.2668 7.55127C11.2594 7.64648 11.3254 7.70507 11.3583 7.6831C11.373 7.46337 11.9113 7.15576 12.4057 7.11181C12.4789 7.0935 12.4423 6.95068 12.4533 6.87744C12.424 6.60278 12.6071 6.35376 12.8634 6.33544C13.215 6.38671 13.3322 6.57348 13.3395 6.85546C13.2992 7.40478 12.7279 7.49633 12.4093 7.54028C12.3617 7.55859 12.3398 7.58056 12.4093 7.6062L13.7497 7.61352L13.8193 7.65014C13.8266 7.68676 13.7973 7.65747 13.746 7.74536C13.6728 7.8751 13.6267 8.01838 13.6105 8.1665C13.2113 8.29834 12.7975 8.34961 12.38 8.40454C12.2336 8.47778 12.1603 8.57666 12.1896 8.68652C12.2409 8.80737 12.5632 8.93188 12.5632 8.93554C12.6254 8.97216 12.695 9.06372 12.5448 9.25048C11.893 9.22119 11.384 8.94287 11.2082 8.55102C11.1569 8.51074 11.0983 8.55102 11.0617 8.60229C10.8053 8.93188 10.5563 9.22485 10.1205 9.38598C9.86418 9.4519 9.59684 9.3457 9.47233 9.17724C9.3881 9.07836 9.39177 8.97216 9.36247 8.95019C9.21965 9.01245 8.01115 9.52514 8.16496 9.28344C8.45793 8.97216 8.97062 8.73779 9.4174 8.43017C9.45036 8.32397 9.50895 7.97241 9.68474 7.85888C9.69572 7.85888 9.6591 8.06396 9.66276 8.15185C9.66276 8.22509 9.65544 8.25073 9.67009 8.23242C9.70305 8.21411 10.245 7.78564 10.2926 7.6538C10.3439 7.58056 10.3036 7.39013 10.3036 7.38281C10.2011 7.11914 10.0583 7.09716 10.007 6.96533C9.95939 6.79321 9.98137 6.59545 10.0802 6.53686C10.1706 6.46118 10.267 6.46728 10.3695 6.55517C10.4794 6.65405 10.5746 6.84814 10.6039 6.99096C10.5856 7.04589 10.4574 6.95434 10.4208 6.97998C10.4913 7.06098 10.5382 7.15979 10.5563 7.26562C10.6296 7.56591 10.6076 7.6831 10.5343 7.87719C10.2926 8.38623 9.98503 8.53637 9.71403 8.7268C9.70671 8.7268 9.70305 8.85498 9.80192 8.92456C9.83854 8.96118 9.98137 8.97949 10.1462 8.92456C10.4975 8.72813 10.782 8.43092 10.9628 8.07128C10.9939 7.79712 10.9639 7.51947 10.8749 7.2583C10.7687 7.01293 10.6442 6.66503 10.6442 6.65771C10.6405 6.5039 10.6515 6.45263 10.7174 6.37573ZM7.20915 4.96215C7.36296 5.0354 7.65593 5.00244 7.64128 4.75341L7.63395 4.63989C7.60466 4.56665 7.51677 4.58496 7.49846 4.6582C7.49113 4.68383 7.50944 4.72412 7.48747 4.7351C7.47282 4.74975 7.42521 4.74243 7.42521 4.67285C7.42277 4.64843 7.41423 4.6289 7.39958 4.61425C7.3947 4.60937 7.38371 4.60693 7.36662 4.60693C7.34465 4.60693 7.34465 4.61059 7.33366 4.6289C7.32878 4.64599 7.32512 4.66552 7.32267 4.6875C7.32023 4.70947 7.31047 4.72167 7.29338 4.72412C7.27141 4.72412 7.27507 4.72412 7.25676 4.71679C7.24699 4.70947 7.24089 4.69726 7.23845 4.68017L7.22746 4.62158C7.22014 4.61181 7.20793 4.60449 7.19084 4.5996C7.10661 4.5996 7.09929 4.69848 7.10661 4.7351C7.09929 4.74243 7.09562 4.91455 7.20915 4.96215Z" fill="white"/>
<path fill-rule="evenodd" clip-rule="evenodd" d="M11.7325 6.87381C11.8863 6.94705 12.2562 6.90677 12.1646 6.66873L12.1573 6.55154C12.1243 6.4783 12.0401 6.49661 12.0218 6.57352C12.0145 6.59549 12.0328 6.63577 12.0071 6.64676C11.9961 6.66141 11.9449 6.65408 11.9485 6.58816C11.9461 6.56375 11.9376 6.543 11.9229 6.52591C11.9156 6.52103 11.9034 6.51858 11.8863 6.51858C11.868 6.51858 11.868 6.52591 11.857 6.54422C11.8497 6.56131 11.846 6.58084 11.846 6.60281C11.8411 6.62234 11.8301 6.63455 11.813 6.63943C11.7947 6.63943 11.7984 6.63943 11.7837 6.62845C11.7715 6.62112 11.7642 6.61014 11.7618 6.59549L11.7508 6.5369C11.7435 6.52469 11.7313 6.51736 11.7142 6.51492C11.6299 6.51492 11.6226 6.61014 11.6263 6.64676C11.6226 6.65408 11.619 6.82986 11.7361 6.87381H11.7325ZM14.3692 6.08279C14.523 6.15604 14.8123 6.12308 14.8013 5.87772L14.794 5.76053C14.761 5.68729 14.6768 5.7056 14.6585 5.77884C14.6512 5.80447 14.6695 5.84476 14.6439 5.8594C14.6329 5.87039 14.5816 5.86307 14.5853 5.79349C14.5828 5.76907 14.5743 5.74954 14.5596 5.73489C14.5523 5.73001 14.5401 5.72757 14.523 5.72757C14.5059 5.72757 14.4961 5.73611 14.4937 5.7532L14.4827 5.80814C14.4803 5.83255 14.4693 5.84476 14.4498 5.84476C14.4205 5.84476 14.4351 5.84476 14.4205 5.83743C14.4083 5.83011 14.4009 5.81912 14.3985 5.80447C14.3985 5.78006 14.3948 5.75931 14.3875 5.74222C14.3777 5.73245 14.3655 5.72635 14.3509 5.72391C14.2667 5.72391 14.2593 5.81912 14.263 5.85574C14.2593 5.86307 14.2557 6.03519 14.3729 6.08279H14.3692ZM15.7352 8.07132C15.4678 8.37527 15.585 8.87698 15.6473 8.98685C15.7352 9.16263 15.8047 9.27615 15.9769 9.36404C16.1343 9.47757 16.2588 9.40799 16.3248 9.32742C16.4822 9.16263 16.4859 8.74148 16.5591 8.66092C16.6104 8.50711 16.7422 8.53274 16.8045 8.60232C16.8633 8.68449 16.9412 8.7511 17.0315 8.79642C17.178 8.92459 17.3538 8.95022 17.5296 8.83304C17.6468 8.76346 17.7237 8.67923 17.7933 8.50711C17.8665 8.30203 17.8299 7.34988 17.8116 6.78592L17.6578 5.99856C17.6578 5.99124 17.6395 5.62503 17.6211 5.5408C17.6211 5.50418 17.6102 5.49319 17.6468 5.49686C17.6871 5.53348 17.6907 5.53348 17.72 5.54446C17.7566 5.55179 17.7933 5.48221 17.7676 5.42361L17.4014 4.74246C17.3721 4.71316 17.3318 4.68387 17.2842 4.74979C17.2556 4.77474 17.2328 4.80576 17.2176 4.8406C17.2024 4.87543 17.1951 4.91321 17.1963 4.9512C17.211 5.11478 17.2269 5.27713 17.244 5.43826L17.3904 6.2659C17.438 6.85184 17.449 7.33523 17.4966 7.92483C17.4893 8.17386 17.4124 8.38992 17.3392 8.42288C17.3392 8.42288 17.2293 8.48514 17.1561 8.41556C17.1011 8.39358 16.8851 8.05301 16.8851 8.05301C16.7752 7.95413 16.702 7.97977 16.6251 8.05301C16.4053 8.26541 16.3101 8.65359 16.16 8.92459C16.1233 8.98685 16.0135 9.03445 15.8963 8.92093C15.596 8.50711 15.7718 7.92117 15.7352 8.07132ZM14.4388 4.63992C14.5779 4.69485 14.6732 4.97684 14.6439 5.116C14.6146 5.28079 14.5413 5.4639 14.49 5.44192C14.4315 5.41995 14.5267 5.27347 14.4717 5.11966C14.4424 5.01712 14.252 4.83401 14.274 4.78274C14.2374 4.66922 14.3545 4.61795 14.4388 4.63626V4.63992Z" fill="white"/>
<path fill-rule="evenodd" clip-rule="evenodd" d="M16.1829 8.23976C16.2085 7.90285 16.1609 7.69777 16.1536 7.50002C16.1462 7.30226 15.9302 5.79347 15.8862 5.64699C15.8313 5.36134 16.095 5.61037 16.0657 5.44191C15.9741 5.23683 15.7507 4.93288 15.6812 4.75343C15.6372 4.68019 15.6555 4.60695 15.5603 4.73512C15.4779 4.95976 15.4491 5.20051 15.4761 5.43825C15.7031 6.62111 15.9338 7.60255 15.8972 8.72682C16.0071 8.72682 16.1279 8.48146 16.1829 8.23976ZM18.5413 5.11598C18.6694 5.17824 18.7427 5.5298 18.728 5.62868C18.7024 5.81178 18.6365 6.00954 18.5889 5.9839C18.5339 5.96193 18.5999 5.71291 18.5742 5.636C18.5449 5.52614 18.3728 5.32838 18.3911 5.26979C18.3545 5.14528 18.4644 5.09401 18.5413 5.11598ZM9.17725 7.60255C9.2981 7.65016 9.37134 7.90651 9.36035 7.97975C9.33106 8.11525 9.2688 8.26173 9.22119 8.23976C9.17359 8.22511 9.23218 8.04201 9.21021 7.98341C9.19922 7.84792 9.03076 7.77467 9.03443 7.71608C9.00513 7.60622 9.10767 7.58791 9.18091 7.60255H9.17725Z" fill="white"/>
<path fill-rule="evenodd" clip-rule="evenodd" d="M12.091 7.99072C12.2448 7.99805 12.3217 8.12256 12.1789 8.17383C12.0324 8.22144 11.8969 8.26172 11.8932 8.4668C11.9482 8.75977 11.82 8.65723 11.7467 8.62061C11.6588 8.55469 11.4098 8.40088 11.3732 8.07129C11.3695 7.99438 11.4318 7.9248 11.5307 7.9248C11.6772 7.96509 11.8969 7.96875 12.091 7.99072Z" fill="#165D31"/>
<path fill-rule="evenodd" clip-rule="evenodd" d="M5.9576 4.55569C6.13338 4.60696 6.14437 4.87063 6.13338 4.94754C6.10775 5.0867 6.04549 5.23684 6.00155 5.21853C5.95028 5.20022 6.00155 5.00979 5.97591 4.9512C5.95028 4.87063 5.80013 4.71682 5.81478 4.67288C5.78182 4.58133 5.88802 4.53738 5.9576 4.55569ZM9.46956 5.78616C9.3304 5.8594 9.27913 6.07913 9.36336 6.21096C9.44393 6.32083 9.56844 6.28054 9.58309 6.28054C9.71859 6.29519 9.79915 6.02786 9.79915 6.02786C9.79915 6.02786 9.80282 5.95462 9.64535 6.09744C9.57577 6.10843 9.5721 6.08279 9.55379 6.04617C9.53703 5.97645 9.54346 5.90316 9.5721 5.83743C9.59774 5.77151 9.54647 5.74221 9.46956 5.78616ZM10.495 4.45315C10.4217 4.50076 10.2862 4.64358 10.2826 4.80471C10.2789 4.89627 10.2606 4.89627 10.3192 4.9512C10.3668 5.01712 10.4071 5.01345 10.495 4.96585C10.517 4.95224 10.5359 4.9341 10.5504 4.91263C10.565 4.89117 10.5748 4.86687 10.5792 4.84134C10.6012 4.7388 10.4693 4.8926 10.4547 4.77542C10.4254 4.66555 10.5096 4.62161 10.5902 4.51907C10.5902 4.44583 10.5902 4.39822 10.4913 4.45315H10.495ZM11.3153 4.59964C11.2831 4.73301 11.2635 4.8691 11.2567 5.00613C11.2347 5.10867 11.3665 5.15261 11.4215 5.02078C11.5094 4.78274 11.5094 4.6802 11.5167 4.58133C11.491 4.42385 11.3848 4.42752 11.3153 4.59964ZM16.5155 7.24734C16.5301 7.22903 17.2479 6.72 17.2479 6.72C17.3211 6.69436 17.3028 6.98367 17.2699 6.98001C17.0472 7.19444 16.7912 7.3713 16.5118 7.50369C16.4752 7.52932 16.4422 7.3096 16.5118 7.24734H16.5155ZM17.1637 7.24002C17.2918 7.30227 17.3431 7.67215 17.3285 7.77102C17.3285 7.96878 17.2076 8.12259 17.1563 8.10061C17.1051 8.07498 17.1637 7.85525 17.138 7.77835C17.1087 7.66848 17.0025 7.46707 17.0208 7.40847C16.9842 7.28396 17.0868 7.21804 17.1673 7.24002H17.1637ZM12.9156 8.82937C12.975 8.76004 13.0441 8.6996 13.1207 8.64993C13.1939 8.61331 13.2598 8.67923 13.2562 8.67556C13.2672 8.74881 13.2122 8.81106 13.2306 8.90628C13.2452 8.9429 13.2562 8.98684 13.3258 8.97219C13.4393 8.88064 13.5455 8.87332 13.6554 8.86966C13.7469 8.87332 13.7506 9.02346 13.692 9.02346C13.4832 9.06741 13.3917 9.126 13.2415 9.18093C13.1683 9.22488 13.1097 9.16995 13.1097 9.16629C13.1097 9.16262 13.0694 9.126 13.0951 9.03079C13.1024 8.95266 13.0731 8.91604 13.0072 8.92093C12.9632 8.95022 12.9193 8.96487 12.8973 8.90994C12.8826 8.87576 12.8888 8.8489 12.9156 8.82937ZM17.918 9.02713C17.9473 9.06375 17.9693 9.10037 17.9144 9.16629L17.7789 9.28347C17.7569 9.3201 17.7423 9.38601 17.8155 9.40432C17.9473 9.44094 18.255 9.23953 18.255 9.23587C18.3062 9.19925 18.2916 9.126 18.2843 9.126C18.255 9.09304 18.189 9.11502 18.1451 9.10769C18.1231 9.10769 18.0535 9.10037 18.0865 9.03445C18.1113 9.00221 18.131 8.9664 18.1451 8.92825C18.1671 8.88675 18.1427 8.85379 18.0719 8.82937C17.995 8.81472 17.962 8.82205 17.8778 8.82937C17.8387 8.83426 17.8155 8.86233 17.8082 8.9136C17.8118 8.99783 17.8631 8.99417 17.918 9.02346V9.02713Z" fill="white"/>
<path fill-rule="evenodd" clip-rule="evenodd" d="M12.941 6.94703C12.9227 6.98365 12.8567 6.98365 12.7945 6.94703C12.7322 6.91041 12.6956 6.85181 12.7176 6.81886C12.7395 6.7859 12.8018 6.7859 12.8641 6.81886C12.9263 6.85181 12.9593 6.91407 12.941 6.94703ZM9.68168 4.98414C9.64506 4.99513 9.59379 4.96217 9.57182 4.9109C9.54985 4.85963 9.56083 4.81568 9.59746 4.8047C9.63408 4.79371 9.68168 4.83033 9.70732 4.87794C9.73295 4.92555 9.7183 4.97682 9.67802 4.9878L9.68168 4.98414ZM16.1307 13.7329C16.4749 13.7476 16.7972 13.7329 17.1377 13.7512C17.2 13.8062 17.156 13.9343 17.1158 13.927L16.8301 13.916C16.8265 13.8062 16.5481 13.8245 16.5555 13.9197C16.4053 13.938 16.2698 13.916 16.116 13.9087C16.0721 13.8538 16.0794 13.7549 16.1307 13.7329Z" fill="#165D31"/>
</g>
</svg>
