<svg width="22" height="20" viewBox="0 0 22 20" fill="none" xmlns="http://www.w3.org/2000/svg">
<path d="M14.0166 7.50418C14.0166 7.60364 14.0561 7.69902 14.1264 7.76935C14.1968 7.83967 14.2921 7.87918 14.3916 7.87918C14.4911 7.87918 14.5864 7.83967 14.6568 7.76935C14.7271 7.69902 14.7666 7.60364 14.7666 7.50418C14.7666 7.40473 14.7271 7.30934 14.6568 7.23902C14.5864 7.16869 14.4911 7.12918 14.3916 7.12918C14.2921 7.12918 14.1968 7.16869 14.1264 7.23902C14.0561 7.30934 14.0166 7.40473 14.0166 7.50418ZM14.0166 7.50418H14.3916M10.2666 7.50418C10.2666 7.60364 10.3061 7.69902 10.3764 7.76935C10.4468 7.83967 10.5421 7.87918 10.6416 7.87918C10.7411 7.87918 10.8364 7.83967 10.9068 7.76935C10.9771 7.69902 11.0166 7.60364 11.0166 7.50418C11.0166 7.40473 10.9771 7.30934 10.9068 7.23902C10.8364 7.16869 10.7411 7.12918 10.6416 7.12918C10.5421 7.12918 10.4468 7.16869 10.3764 7.23902C10.3061 7.30934 10.2666 7.40473 10.2666 7.50418ZM10.2666 7.50418H10.6416M6.5166 7.50418C6.5166 7.60364 6.55611 7.69902 6.62644 7.76935C6.69676 7.83967 6.79215 7.87918 6.8916 7.87918C6.99106 7.87918 7.08644 7.83967 7.15677 7.76935C7.22709 7.69902 7.2666 7.60364 7.2666 7.50418C7.2666 7.40473 7.22709 7.30934 7.15677 7.23902C7.08644 7.16869 6.99106 7.12918 6.8916 7.12918C6.79215 7.12918 6.69676 7.16869 6.62644 7.23902C6.55611 7.30934 6.5166 7.40473 6.5166 7.50418ZM6.5166 7.50418H6.8916M20.3916 10.5142C20.3916 12.1142 19.2686 13.5082 17.6846 13.7412C16.5976 13.9012 15.4996 14.0242 14.3916 14.1102V18.7542L10.2076 14.5712C10.0004 14.3648 9.72192 14.246 9.4296 14.2392C7.47799 14.1912 5.53108 14.0249 3.5996 13.7412C2.0146 13.5082 0.891602 12.1152 0.891602 10.5132V4.49518C0.891602 2.89318 2.0146 1.50018 3.5986 1.26718C5.93064 0.924897 8.28457 0.753441 10.6416 0.754183C13.0336 0.754183 15.3856 0.929183 17.6846 1.26718C19.2686 1.50018 20.3916 2.89418 20.3916 4.49518V10.5132V10.5142Z" stroke="#000C21" stroke-width="1.5" stroke-linecap="round" stroke-linejoin="round"/>
</svg>
