<svg width="26" height="16" viewBox="0 0 26 16" fill="none" xmlns="http://www.w3.org/2000/svg">
<path d="M24.75 0.75V14.75M16.75 0.75V14.75M0.750001 13.1647V2.33667C0.750001 1.18467 1.994 0.462 2.994 1.034L12.4713 6.44867C12.7011 6.57982 12.892 6.7694 13.0249 6.99818C13.1577 7.22696 13.2277 7.48679 13.2277 7.75133C13.2277 8.01587 13.1577 8.27571 13.0249 8.50449C12.892 8.73326 12.7011 8.92284 12.4713 9.054L2.994 14.4687C2.76577 14.599 2.50728 14.6671 2.24443 14.6662C1.98159 14.6652 1.72361 14.5952 1.49635 14.4631C1.26909 14.331 1.08052 14.1416 0.949531 13.9137C0.818543 13.6858 0.749735 13.4275 0.750001 13.1647Z" stroke="white" stroke-width="1.5" stroke-linecap="round" stroke-linejoin="round"/>
</svg>
