<svg width="32" height="33" viewBox="0 0 32 33" fill="none" xmlns="http://www.w3.org/2000/svg">
<path d="M14 8.55859C12.0222 8.55859 10.0888 9.14508 8.4443 10.2439C6.79981 11.3427 5.51809 12.9045 4.76121 14.7318C4.00433 16.559 3.8063 18.5697 4.19215 20.5095C4.578 22.4493 5.53041 24.2311 6.92894 25.6297C8.32746 27.0282 10.1093 27.9806 12.0491 28.3664C13.9889 28.7523 15.9996 28.5543 17.8268 27.7974C19.6541 27.0405 21.2159 25.7588 22.3147 24.1143C23.4135 22.4698 24 20.5364 24 18.5586H14V8.55859Z" stroke="white" stroke-width="1.5" stroke-linecap="round" stroke-linejoin="round"/>
<path d="M18 14.5586H28C28 11.9064 26.9464 9.36289 25.0711 7.48753C23.1957 5.61216 20.6522 4.55859 18 4.55859V14.5586Z" stroke="white" stroke-width="1.5" stroke-linecap="round" stroke-linejoin="round"/>
</svg>
