<svg width="21" height="20" viewBox="0 0 21 20" fill="none" xmlns="http://www.w3.org/2000/svg">
<path d="M6.22266 2.5V4.375M14.9727 2.5V4.375M3.09766 15.625V6.25C3.09766 5.75272 3.2952 5.27581 3.64683 4.92417C3.99846 4.57254 4.47538 4.375 4.97266 4.375H16.2227C16.7199 4.375 17.1969 4.57254 17.5485 4.92417C17.9001 5.27581 18.0977 5.75272 18.0977 6.25V15.625M3.09766 15.625C3.09766 16.1223 3.2952 16.5992 3.64683 16.9508C3.99846 17.3025 4.47538 17.5 4.97266 17.5H16.2227C16.7199 17.5 17.1969 17.3025 17.5485 16.9508C17.9001 16.5992 18.0977 16.1223 18.0977 15.625M3.09766 15.625V9.375C3.09766 8.87772 3.2952 8.40081 3.64683 8.04917C3.99846 7.69754 4.47538 7.5 4.97266 7.5H16.2227C16.7199 7.5 17.1969 7.69754 17.5485 8.04917C17.9001 8.40081 18.0977 8.87772 18.0977 9.375V15.625M10.5977 10.625H10.6043V10.6317H10.5977V10.625ZM10.5977 12.5H10.6043V12.5067H10.5977V12.5ZM10.5977 14.375H10.6043V14.3817H10.5977V14.375ZM8.72266 12.5H8.72932V12.5067H8.72266V12.5ZM8.72266 14.375H8.72932V14.3817H8.72266V14.375ZM6.84766 12.5H6.85432V12.5067H6.84766V12.5ZM6.84766 14.375H6.85432V14.3817H6.84766V14.375ZM12.4727 10.625H12.4793V10.6317H12.4727V10.625ZM12.4727 12.5H12.4793V12.5067H12.4727V12.5ZM12.4727 14.375H12.4793V14.3817H12.4727V14.375ZM14.3477 10.625H14.3543V10.6317H14.3477V10.625ZM14.3477 12.5H14.3543V12.5067H14.3477V12.5Z" stroke="#454545" stroke-width="1.5" stroke-linecap="round" stroke-linejoin="round"/>
</svg>
