<svg width="20" height="20" viewBox="0 0 20 20" fill="none" xmlns="http://www.w3.org/2000/svg">
<path fill-rule="evenodd" clip-rule="evenodd" d="M15.8093 3.04916C15.6352 2.87505 15.4285 2.73694 15.201 2.64271C14.9735 2.54848 14.7297 2.49998 14.4835 2.49998C14.2372 2.49998 13.9934 2.54848 13.7659 2.64271C13.5384 2.73694 13.3317 2.87505 13.1576 3.04916L4.04095 12.1658C3.45494 12.752 3.12576 13.5469 3.12584 14.3757C3.12592 15.2045 3.45524 15.9994 4.04137 16.5854C4.6275 17.1714 5.42242 17.5006 6.25125 17.5005C7.08008 17.5005 7.87494 17.1711 8.46096 16.585L14.8718 10.1742C14.9903 10.0638 15.147 10.0037 15.3089 10.0065C15.4708 10.0094 15.6253 10.075 15.7398 10.1895C15.8543 10.304 15.9199 10.4585 15.9228 10.6204C15.9256 10.7823 15.8655 10.939 15.7551 11.0575L9.34429 17.4683C8.94 17.8832 8.45734 18.2137 7.92431 18.4406C7.39129 18.6674 6.81852 18.7862 6.23923 18.7899C5.65995 18.7937 5.08569 18.6823 4.54978 18.4624C4.01386 18.2424 3.52697 17.9182 3.11735 17.5086C2.70772 17.099 2.38353 16.6121 2.16357 16.0762C1.94362 15.5403 1.83228 14.966 1.83603 14.3867C1.83978 13.8074 1.95853 13.2347 2.1854 12.7016C2.41227 12.1686 2.74273 11.686 3.15762 11.2817L12.2735 2.165C12.8596 1.57898 13.6545 1.2498 14.4833 1.24988C15.3122 1.24996 16.107 1.57928 16.693 2.16541C17.2791 2.75154 17.6082 3.54646 17.6082 4.37529C17.6081 5.20412 17.2788 5.99898 16.6926 6.585L7.58179 15.6958L7.57512 15.7025L7.56929 15.7083L7.56762 15.71L7.56512 15.7117C7.20876 16.0443 6.73686 16.225 6.24948 16.2156C5.76209 16.2062 5.29754 16.0073 4.95431 15.6611C4.61108 15.315 4.41616 14.8488 4.41086 14.3613C4.40557 13.8739 4.59032 13.4035 4.92595 13.05L11.4343 6.54166C11.5521 6.42776 11.71 6.36468 11.8738 6.36603C12.0377 6.36738 12.1945 6.43303 12.3104 6.54886C12.4264 6.66469 12.4922 6.82141 12.4937 6.98529C12.4952 7.14916 12.4322 7.30707 12.3185 7.425L5.81012 13.9333C5.6921 14.0498 5.62518 14.2084 5.62409 14.3742C5.62299 14.54 5.68781 14.6995 5.80429 14.8175C5.92076 14.9355 6.07935 15.0024 6.24516 15.0035C6.41098 15.0046 6.57043 14.9398 6.68845 14.8233L15.8093 5.7C15.9834 5.52589 16.1215 5.31919 16.2157 5.0917C16.31 4.86421 16.3585 4.62039 16.3585 4.37416C16.3585 4.12793 16.31 3.88411 16.2157 3.65663C16.1215 3.42914 15.9834 3.22327 15.8093 3.04916Z" fill="black"/>
</svg>
