<svg width="13" height="13" viewBox="0 0 13 13" fill="none" xmlns="http://www.w3.org/2000/svg">
<g clip-path="url(#clip0_888_28300)">
<path d="M11.2348 4.15059L6.4648 8.92056C5.9898 9.39556 4.57978 9.61556 4.26478 9.30056C3.94978 8.98556 4.16478 7.57556 4.63978 7.10056L9.4148 2.32557C9.53255 2.1971 9.6751 2.09383 9.8339 2.02198C9.99265 1.95013 10.1643 1.91118 10.3386 1.90751C10.5128 1.90385 10.686 1.93552 10.8477 2.00062C11.0093 2.06573 11.1561 2.16293 11.2792 2.28633C11.4022 2.40973 11.499 2.55678 11.5637 2.71861C11.6283 2.88044 11.6596 3.05369 11.6554 3.22792C11.6513 3.40214 11.6118 3.57374 11.5396 3.73231C11.4673 3.89089 11.3636 4.03318 11.2348 4.15059Z" stroke="#000C21" stroke-width="1.2" stroke-linecap="round" stroke-linejoin="round"/>
<path d="M6.0929 2.9502H3.5929C3.06246 2.9502 2.55379 3.16091 2.17871 3.53598C1.80364 3.91106 1.5929 4.41976 1.5929 4.9502V9.9502C1.5929 10.4806 1.80364 10.9893 2.17871 11.3644C2.55379 11.7395 3.06246 11.9502 3.5929 11.9502H9.0929C10.1979 11.9502 10.5929 11.0502 10.5929 9.9502V7.4502" stroke="#000C21" stroke-width="1.2" stroke-linecap="round" stroke-linejoin="round"/>
</g>
<defs>
<clipPath id="clip0_888_28300">
<rect width="12" height="12" fill="white" transform="translate(0.592896 0.950195)"/>
</clipPath>
</defs>
</svg>
