<svg width="32" height="33" viewBox="0 0 32 33" fill="none" xmlns="http://www.w3.org/2000/svg">
<path d="M21.0026 8.55869C21.0026 9.88477 20.4758 11.1565 19.5381 12.0942C18.6004 13.0319 17.3287 13.5587 16.0026 13.5587C14.6765 13.5587 13.4047 13.0319 12.467 12.0942C11.5294 11.1565 11.0026 9.88477 11.0026 8.55869C11.0026 7.2326 11.5294 5.96083 12.467 5.02315C13.4047 4.08547 14.6765 3.55869 16.0026 3.55869C17.3287 3.55869 18.6004 4.08547 19.5381 5.02315C20.4758 5.96083 21.0026 7.2326 21.0026 8.55869ZM6.00391 27.3827C6.04675 24.7592 7.11902 22.2576 8.98948 20.4174C10.8599 18.5773 13.3787 17.546 16.0026 17.546C18.6265 17.546 21.1452 18.5773 23.0157 20.4174C24.8861 22.2576 25.9584 24.7592 26.0012 27.3827C22.8644 28.821 19.4534 29.5634 16.0026 29.5587C12.4346 29.5587 9.04791 28.78 6.00391 27.3827Z" stroke="white" stroke-width="1.5" stroke-linecap="round" stroke-linejoin="round"/>
</svg>
