<svg width="22" height="22" viewBox="0 0 22 22" fill="none" xmlns="http://www.w3.org/2000/svg">
<path d="M18.6855 12.8236C17.9115 9.09555 14.6759 6.44663 11.0362 6.44663C7.39774 6.44663 4.16214 9.09555 3.387 12.8236C3.35629 12.9716 3.26826 13.1012 3.14226 13.184C3.01626 13.2669 2.86262 13.2961 2.71513 13.2653C2.56765 13.2345 2.43839 13.1462 2.35582 13.0198C2.27324 12.8934 2.24409 12.7393 2.27479 12.5914C3.15661 8.35108 6.84505 5.30829 11.0362 5.30829C15.2274 5.30829 18.9159 8.35108 19.7977 12.5914C19.8284 12.7393 19.7992 12.8934 19.7167 13.0198C19.6341 13.1462 19.5048 13.2345 19.3574 13.2653C19.2099 13.2961 19.0562 13.2669 18.9302 13.184C18.8042 13.1012 18.7162 12.9716 18.6855 12.8236ZM11.0476 8.72331C9.99411 8.72331 8.98377 9.14308 8.23885 9.89026C7.49393 10.6374 7.07543 11.6508 7.07543 12.7075C7.07543 13.7642 7.49393 14.7776 8.23885 15.5248C8.98377 16.2719 9.99411 16.6917 11.0476 16.6917C12.1011 16.6917 13.1114 16.2719 13.8563 15.5248C14.6013 14.7776 15.0198 13.7642 15.0198 12.7075C15.0198 11.6508 14.6013 10.6374 13.8563 9.89026C13.1114 9.14308 12.1011 8.72331 11.0476 8.72331Z" fill="#6A707C"/>
</svg>
