<svg width="25" height="25" viewBox="0 0 25 25" fill="none" xmlns="http://www.w3.org/2000/svg">
<path d="M10.5977 6.55859H20.3477M10.5977 6.55859C10.5977 6.95642 10.4396 7.33795 10.1583 7.61925C9.87701 7.90056 9.49548 8.05859 9.09766 8.05859C8.69983 8.05859 8.3183 7.90056 8.037 7.61925C7.75569 7.33795 7.59766 6.95642 7.59766 6.55859M10.5977 6.55859C10.5977 6.16077 10.4396 5.77924 10.1583 5.49793C9.87701 5.21663 9.49548 5.05859 9.09766 5.05859C8.69983 5.05859 8.3183 5.21663 8.037 5.49793C7.75569 5.77924 7.59766 6.16077 7.59766 6.55859M7.59766 6.55859H3.84766M10.5977 18.5586H20.3477M10.5977 18.5586C10.5977 18.9564 10.4396 19.3379 10.1583 19.6193C9.87701 19.9006 9.49548 20.0586 9.09766 20.0586C8.69983 20.0586 8.3183 19.9006 8.037 19.6193C7.75569 19.3379 7.59766 18.9564 7.59766 18.5586M10.5977 18.5586C10.5977 18.1608 10.4396 17.7792 10.1583 17.4979C9.87701 17.2166 9.49548 17.0586 9.09766 17.0586C8.69983 17.0586 8.3183 17.2166 8.037 17.4979C7.75569 17.7792 7.59766 18.1608 7.59766 18.5586M7.59766 18.5586H3.84766M16.5977 12.5586H20.3477M16.5977 12.5586C16.5977 12.9564 16.4396 13.3379 16.1583 13.6193C15.877 13.9006 15.4955 14.0586 15.0977 14.0586C14.6998 14.0586 14.3183 13.9006 14.037 13.6193C13.7557 13.3379 13.5977 12.9564 13.5977 12.5586M16.5977 12.5586C16.5977 12.1608 16.4396 11.7792 16.1583 11.4979C15.877 11.2166 15.4955 11.0586 15.0977 11.0586C14.6998 11.0586 14.3183 11.2166 14.037 11.4979C13.7557 11.7792 13.5977 12.1608 13.5977 12.5586M13.5977 12.5586H3.84766" stroke="#0A0A0A" stroke-width="1.5" stroke-linecap="round" stroke-linejoin="round"/>
</svg>
