<svg width="26" height="25" viewBox="0 0 26 25" fill="none" xmlns="http://www.w3.org/2000/svg">
<path d="M9.94579 0.502765H16.3057C20.4635 0.515347 23.926 3.03169 24.4765 6.5923C24.6349 7.52667 24.5548 8.47985 24.2419 9.38434C23.9289 10.2888 23.3908 11.1225 22.6656 11.8263C22.2165 12.2918 22.1875 12.5812 22.6222 13.0593C25.0995 15.7769 25.2299 18.9223 22.8539 21.6777C21.3038 23.4643 19.1452 24.4331 16.552 24.4709C12.0175 24.5212 7.46846 24.496 2.93395 24.4835C1.7315 24.4835 0.804317 23.8166 0.601495 22.8604C0.398673 21.9042 0.963677 21.1493 1.97779 20.7467C2.32548 20.6209 2.65869 20.6335 3.00638 20.6335H16.1898C18.247 20.6209 19.5798 19.7024 20.0144 18.0039C20.4491 16.3054 18.9134 14.6697 17.059 14.481C15.422 14.3175 13.7849 14.4055 12.1479 14.4055C11.5829 14.4055 11.4235 14.2545 11.438 13.7639C11.4887 12.9131 11.4887 12.0606 11.438 11.2098C11.409 10.631 11.6553 10.5052 12.2638 10.5178C13.6256 10.5555 15.0018 10.5304 16.3637 10.5304C18.5367 10.5304 20.0144 9.28478 20.0579 7.52334C20.1014 5.76191 18.4788 4.36534 16.3637 4.36534H2.96292C1.78945 4.36534 0.818805 3.69851 0.615983 2.76747C0.521859 2.32262 0.611106 1.86319 0.868069 1.46978C1.12503 1.07637 1.5333 0.774103 2.02125 0.616004C2.38343 0.477605 2.7601 0.502765 3.13677 0.502765H9.94579Z" stroke="white"/>
<path d="M15.7295 6.11816V6.11914C15.9974 6.11729 16.2649 6.13469 16.5293 6.17188L16.7939 6.21484L16.7979 6.21582C17.0072 6.25777 17.2607 6.32908 17.4727 6.4834C17.7102 6.6565 17.8671 6.91357 17.8936 7.24512C17.911 7.465 17.9047 7.74958 17.7744 8.02441C17.6355 8.31732 17.3865 8.53742 17.0381 8.6709L17.0225 8.67676C16.6926 8.79051 16.342 8.84478 15.9902 8.84082V8.8418C14.1985 8.8418 12.4095 8.85433 10.6084 8.8291H10.6055C10.4359 8.82559 10.3606 8.84551 10.335 8.85547C10.3284 8.87539 10.3184 8.92376 10.3184 9.02148C10.3328 11.3248 10.3329 13.6156 10.3184 15.9189C10.3186 16.0358 10.3324 16.1064 10.3457 16.1465C10.3568 16.1798 10.3659 16.1865 10.3672 16.1875C10.3777 16.1965 10.4657 16.2584 10.8008 16.2471H10.8076C12.6179 16.2093 14.4746 16.2468 16.2617 16.2344H16.2656C16.7793 16.2344 17.4341 16.3569 17.7744 16.9688C17.9325 17.2532 17.9713 17.539 17.8896 17.8193C17.8207 18.0558 17.671 18.2532 17.5811 18.376C17.3915 18.6344 17.1394 18.7554 16.9014 18.8096C16.7926 18.8343 16.6809 18.846 16.5762 18.8516L16.2939 18.8574L9.26758 18.8447H2.22754C2.00764 18.8447 1.71874 18.8411 1.44922 18.7578C1.15214 18.666 0.876086 18.4774 0.697266 18.1357L0.698242 18.1348C0.458265 17.6807 0.437033 17.1572 0.783203 16.75C1.09708 16.381 1.61147 16.235 2.15137 16.2344L4.91309 16.2148C5.83585 16.2117 6.76031 16.2154 7.68457 16.2344H7.69141C7.95914 16.2435 8.04009 16.1972 8.05273 16.1885C8.04447 16.197 8.08691 16.1646 8.08691 15.9414C8.08691 14.7785 8.0837 13.6155 8.08008 12.4531C8.07646 11.291 8.07227 10.1291 8.07227 8.9707V8.96289L8.07324 8.95508C8.07519 8.89417 8.07021 8.85702 8.06641 8.83594C8.06429 8.83534 8.06202 8.83461 8.05957 8.83398C8.0188 8.82353 7.9467 8.81387 7.83008 8.81641H7.82617C6.02018 8.8415 4.18029 8.81667 2.37598 8.8291L2.375 8.82812C1.83169 8.84082 1.2322 8.72874 0.803711 8.22656L0.804688 8.22559C0.656469 8.05857 0.553168 7.85496 0.515625 7.63086C0.477159 7.40076 0.510468 7.16656 0.607422 6.95605C0.703927 6.74679 0.857612 6.5721 1.04492 6.44434C1.23219 6.31664 1.44978 6.23757 1.67383 6.20996V6.21094C2.08993 6.15493 2.50981 6.12324 2.93066 6.11816H15.7295Z" stroke="white"/>
<path d="M6.47363 11.0596C6.47496 11.0741 6.47865 11.091 6.47949 11.1113V11.1123C6.49358 11.559 6.47645 11.9899 6.47266 12.4707C6.469 12.9348 6.47917 13.4232 6.55664 13.9199C6.55769 13.9275 6.55617 13.9352 6.55664 13.9414C6.52998 13.9449 6.49015 13.9481 6.43359 13.9443C6.00127 13.9155 5.4959 13.9205 5.0166 13.9258V13.918H4.5166C3.87873 13.918 3.32295 13.9436 2.72656 13.9189L2.71387 13.918C2.48132 13.914 2.25341 13.8703 2.04395 13.79C1.83457 13.7098 1.64986 13.596 1.49902 13.458C1.34832 13.3201 1.23459 13.1611 1.16113 12.9932C1.08863 12.8273 1.05577 12.6532 1.06152 12.4805C1.0792 12.1328 1.24686 11.7877 1.55762 11.5195C1.87013 11.2499 2.30011 11.0826 2.76465 11.0674C3.35664 11.0551 3.95332 11.0584 4.55762 11.0615C5.15819 11.0646 5.76638 11.0682 6.37207 11.0557C6.41474 11.0557 6.44808 11.0571 6.47363 11.0596Z" stroke="white"/>
</svg>
