<svg width="32" height="33" viewBox="0 0 32 33" fill="none" xmlns="http://www.w3.org/2000/svg">
<path d="M3 25.5587C10.1141 25.5529 17.1973 26.495 24.0627 28.36C25.032 28.624 26 27.904 26 26.8987V25.5587M5 6.55872V7.55872C5 7.82393 4.89464 8.07829 4.70711 8.26582C4.51957 8.45336 4.26522 8.55872 4 8.55872H3M3 8.55872V8.05872C3 7.23072 3.672 6.55872 4.5 6.55872H27M3 8.55872V20.5587M27 6.55872V7.55872C27 8.11072 27.448 8.55872 28 8.55872H29M27 6.55872H27.5C28.328 6.55872 29 7.23072 29 8.05872V21.0587C29 21.8867 28.328 22.5587 27.5 22.5587H27M3 20.5587V21.0587C3 21.4565 3.15804 21.8381 3.43934 22.1194C3.72064 22.4007 4.10218 22.5587 4.5 22.5587H5M3 20.5587H4C4.26522 20.5587 4.51957 20.6641 4.70711 20.8516C4.89464 21.0391 5 21.2935 5 21.5587V22.5587M27 22.5587V21.5587C27 21.2935 27.1054 21.0391 27.2929 20.8516C27.4804 20.6641 27.7348 20.5587 28 20.5587H29M27 22.5587H5M20 14.5587C20 15.6196 19.5786 16.637 18.8284 17.3871C18.0783 18.1373 17.0609 18.5587 16 18.5587C14.9391 18.5587 13.9217 18.1373 13.1716 17.3871C12.4214 16.637 12 15.6196 12 14.5587C12 13.4979 12.4214 12.4804 13.1716 11.7303C13.9217 10.9801 14.9391 10.5587 16 10.5587C17.0609 10.5587 18.0783 10.9801 18.8284 11.7303C19.5786 12.4804 20 13.4979 20 14.5587ZM24 14.5587H24.0107V14.5694H24V14.5587ZM8 14.5587H8.01067V14.5694H8V14.5587Z" stroke="white" stroke-width="1.5" stroke-linecap="round" stroke-linejoin="round"/>
</svg>
