<svg width="32" height="33" viewBox="0 0 32 33" fill="none" xmlns="http://www.w3.org/2000/svg">
<path d="M27.0001 19.4253V25.092C27.0001 26.5506 25.9507 27.8066 24.5041 27.9986C21.7214 28.368 18.8827 28.5586 16.0001 28.5586C13.1174 28.5586 10.2787 28.368 7.49607 27.9986C6.04941 27.8066 5.00007 26.5506 5.00007 25.092V19.4253M27.0001 19.4253C27.3167 19.1502 27.57 18.8098 27.7426 18.4275C27.9152 18.0452 28.0031 17.6301 28.0001 17.2106V12.1666C28.0001 10.7253 26.9761 9.47996 25.5507 9.26662C24.0405 9.04052 22.5226 8.86841 21.0001 8.75062M27.0001 19.4253C26.7414 19.6453 26.4401 19.8186 26.1027 19.932C22.8444 21.0131 19.4331 21.5623 16.0001 21.5586C12.4694 21.5586 9.07341 20.9866 5.89741 19.932C5.56842 19.8225 5.26371 19.6505 5.00007 19.4253M5.00007 19.4253C4.68347 19.1502 4.43015 18.8098 4.25754 18.4275C4.08492 18.0452 3.99709 17.6301 4.00007 17.2106V12.1666C4.00007 10.7253 5.02407 9.47996 6.44941 9.26662C7.95967 9.04051 9.47753 8.8684 11.0001 8.75062M21.0001 8.75062V7.55862C21.0001 6.76297 20.684 5.99991 20.1214 5.4373C19.5588 4.87469 18.7957 4.55862 18.0001 4.55862H14.0001C13.2044 4.55862 12.4414 4.87469 11.8788 5.4373C11.3161 5.99991 11.0001 6.76297 11.0001 7.55862V8.75062M21.0001 8.75062C17.6717 8.49339 14.3284 8.49339 11.0001 8.75062M16.0001 17.5586H16.0107V17.5693H16.0001V17.5586Z" stroke="white" stroke-width="1.5" stroke-linecap="round" stroke-linejoin="round"/>
</svg>
