<svg width="21" height="20" viewBox="0 0 21 20" fill="none" xmlns="http://www.w3.org/2000/svg">
<path d="M5.133 9C5.939 9 6.666 8.554 7.164 7.92C7.94026 6.92962 8.91471 6.11218 10.025 5.52C10.748 5.136 11.375 4.564 11.678 3.805C11.8908 3.27325 12.0001 2.70575 12 2.133V1.5C12 1.30109 12.079 1.11032 12.2197 0.96967C12.3603 0.829018 12.5511 0.75 12.75 0.75C13.3467 0.75 13.919 0.987053 14.341 1.40901C14.763 1.83097 15 2.40326 15 3C15 4.152 14.74 5.243 14.277 6.218C14.011 6.776 14.384 7.5 15.002 7.5M15.002 7.5H18.128C19.154 7.5 20.073 8.194 20.182 9.215C20.227 9.637 20.25 10.065 20.25 10.5C20.2541 13.2363 19.3191 15.8912 17.601 18.021C17.213 18.503 16.614 18.75 15.996 18.75H11.98C11.497 18.75 11.016 18.672 10.557 18.52L7.443 17.48C6.98411 17.3274 6.50361 17.2497 6.02 17.25H4.404M15.002 7.5H12.75M4.404 17.25C4.487 17.455 4.577 17.655 4.674 17.852C4.871 18.252 4.596 18.75 4.151 18.75H3.243C2.354 18.75 1.53 18.232 1.271 17.382C0.924648 16.2452 0.749065 15.0633 0.750004 13.875C0.750004 12.322 1.045 10.839 1.581 9.477C1.887 8.703 2.667 8.25 3.5 8.25H4.553C5.025 8.25 5.298 8.806 5.053 9.21C4.19889 10.616 3.74843 12.2299 3.751 13.875C3.751 15.069 3.983 16.208 4.405 17.25H4.404Z" stroke="white" stroke-width="1.5" stroke-linecap="round" stroke-linejoin="round"/>
</svg>
