<svg width="155" height="170" viewBox="0 0 155 170" fill="none" xmlns="http://www.w3.org/2000/svg">
<g filter="url(#filter0_d_752_11705)">
<path d="M70.4108 20.0215H87.6862C98.9915 20.0861 108.373 28.6336 109.88 40.712C110.713 47.2787 109.008 53.3932 104.981 58.4959C103.752 60.0676 103.652 61.058 104.823 62.6727C111.586 71.9092 111.923 82.5666 105.457 91.9107C101.272 98.0037 95.3817 101.298 88.3605 101.405C76.0238 101.599 63.6871 101.492 51.3504 101.47C48.0976 101.449 45.5588 99.1879 45.0035 95.9583C44.4481 92.7288 46.015 90.1452 48.7521 88.7888C49.6843 88.3367 50.6363 88.4013 51.5685 88.4013H87.349C92.962 88.3797 96.5916 85.2579 97.742 79.4662C98.7932 74.1268 94.7669 68.1629 89.7489 67.517C85.3061 66.9572 80.8434 67.2802 76.4006 67.2802C74.8338 67.2802 74.4172 66.7419 74.4767 65.1056C74.5958 62.1991 74.6156 59.2925 74.4767 56.3859C74.3776 54.4698 75.0718 54.0176 76.718 54.0822C80.4269 54.1899 84.116 54.1037 87.825 54.1037C93.7355 54.1037 97.742 49.8838 97.8808 43.8769C98.0196 37.87 93.5967 33.1334 87.8647 33.1334H51.4495C48.2563 33.1119 45.6382 30.8512 45.063 27.6863C44.4878 24.5213 46.0944 21.5932 48.8711 20.366C49.8628 19.9354 50.8942 20.0215 51.9057 20H70.4108V20.0215Z" fill="#2F5698"/>
<path d="M68.577 80.5004H49.4571C48.2671 80.5219 47.0969 80.4142 46.5019 79.0578C45.5498 76.7972 46.72 75.0532 49.239 75.0317C54.2569 75.0102 59.2551 74.924 64.2532 75.0748C66.2565 75.1393 66.7127 74.1274 66.7127 72.3404C66.7325 64.4604 66.7127 56.5804 66.7127 48.7003C66.7127 47.1717 66.2366 46.4612 64.6698 46.4827C59.7311 46.5904 54.7925 46.5043 49.8736 46.5473C48.5448 46.5473 47.4142 46.2459 46.6209 45.0617C45.5895 43.4685 46.4027 41.2724 48.1481 40.9925C49.2246 40.813 50.3117 40.7194 51.4008 40.7127H86.1499C87.0357 40.6802 87.9217 40.767 88.7878 40.971C89.7994 41.2509 90.5729 41.6815 90.6522 42.9518C90.7316 44.2221 90.5332 45.4278 89.2242 46.0521C88.4706 46.3908 87.6594 46.5522 86.8441 46.5258C81.9848 46.5043 77.1056 46.5904 72.2463 46.4827C70.6001 46.4612 70.1043 47.2148 70.1043 48.8295C70.1241 56.645 70.1241 64.4389 70.1043 72.2543C70.0844 74.2781 70.7984 75.1178 72.8017 75.0748C77.7205 74.9456 82.6591 75.0532 87.5978 75.0317C88.8672 75.0102 89.958 75.4192 90.5134 76.6465C91.0687 77.8737 90.6522 78.6703 90.0572 79.5746C89.4622 80.4788 88.6093 80.5219 87.697 80.5004H68.577Z" fill="#84BD47"/>
</g>
<defs>
<filter id="filter0_d_752_11705" x="0.892273" y="0" width="153.215" height="169.519" filterUnits="userSpaceOnUse" color-interpolation-filters="sRGB">
<feFlood flood-opacity="0" result="BackgroundImageFix"/>
<feColorMatrix in="SourceAlpha" type="matrix" values="0 0 0 0 0 0 0 0 0 0 0 0 0 0 0 0 0 0 127 0" result="hardAlpha"/>
<feOffset dy="24"/>
<feGaussianBlur stdDeviation="22"/>
<feComposite in2="hardAlpha" operator="out"/>
<feColorMatrix type="matrix" values="0 0 0 0 1 0 0 0 0 1 0 0 0 0 1 0 0 0 0.15 0"/>
<feBlend mode="normal" in2="BackgroundImageFix" result="effect1_dropShadow_752_11705"/>
<feBlend mode="normal" in="SourceGraphic" in2="effect1_dropShadow_752_11705" result="shape"/>
</filter>
</defs>
</svg>
