<svg width="20" height="21" viewBox="0 0 20 21" fill="none" xmlns="http://www.w3.org/2000/svg">
<path d="M12.7258 15.7682C14.5888 15.5476 16.4193 15.108 18.1792 14.4583C16.6887 12.8073 15.8652 10.6613 15.8685 8.43702V7.6871C15.8685 6.09598 15.2364 4.57003 14.1113 3.44494C12.9862 2.31984 11.4603 1.68777 9.86914 1.68777C8.27802 1.68777 6.75207 2.31984 5.62698 3.44494C4.50189 4.57003 3.86982 6.09598 3.86982 7.6871V8.43702C3.87283 10.6614 3.0489 12.8075 1.55808 14.4583C3.29088 15.0983 5.11768 15.5432 7.01246 15.7682M12.7258 15.7682C10.828 15.9933 8.91026 15.9933 7.01246 15.7682M12.7258 15.7682C12.8699 16.218 12.9057 16.6955 12.8304 17.1618C12.7551 17.628 12.5707 18.0699 12.2922 18.4515C12.0138 18.833 11.6492 19.1434 11.2282 19.3574C10.8071 19.5714 10.3415 19.6829 9.86914 19.6829C9.39682 19.6829 8.93117 19.5714 8.5101 19.3574C8.08904 19.1434 7.72445 18.833 7.44604 18.4515C7.16762 18.0699 6.98323 17.628 6.90789 17.1618C6.83255 16.6955 6.86838 16.218 7.01246 15.7682M0.994141 6.18727C1.27608 4.51243 2.02782 2.95208 3.1619 1.68777M16.5764 1.68777C17.7105 2.95208 18.4622 4.51243 18.7441 6.18727" stroke="white" stroke-width="1.5" stroke-linecap="round" stroke-linejoin="round"/>
</svg>
