<svg width="24" height="25" viewBox="0 0 24 25" fill="none" xmlns="http://www.w3.org/2000/svg">
<path fill-rule="evenodd" clip-rule="evenodd" d="M17.6642 3.67659C17.8892 3.69159 18.1142 3.70859 18.3372 3.72659C19.8772 3.85659 21.0012 5.16259 21.0012 6.66759V16.3096C21.0012 17.1052 20.6851 17.8683 20.1225 18.4309C19.5599 18.9935 18.7968 19.3096 18.0012 19.3096V17.0586C18.0012 11.1366 13.4252 6.28359 7.61719 5.84159C7.94119 4.70959 8.91719 3.83159 10.1652 3.72759C10.3892 3.70859 10.6132 3.69159 10.8382 3.67659C11.0913 3.18888 11.4735 2.78006 11.9431 2.49473C12.4127 2.20941 12.9517 2.05854 13.5012 2.05859H15.0012C15.5507 2.05854 16.0896 2.20941 16.5592 2.49473C17.0288 2.78006 17.4111 3.18888 17.6642 3.67659ZM12.0012 5.05859C12.0012 4.66077 12.1592 4.27924 12.4405 3.99793C12.7218 3.71663 13.1034 3.55859 13.5012 3.55859H15.0012C15.399 3.55859 15.7805 3.71663 16.0618 3.99793C16.3432 4.27924 16.5012 4.66077 16.5012 5.05859H12.0012Z" fill="#2F5698"/>
<path d="M3 9.18359C3 8.14759 3.84 7.30859 4.875 7.30859H5.25C6.24456 7.30859 7.19839 7.70368 7.90165 8.40694C8.60491 9.1102 9 10.064 9 11.0586V12.9336C9 13.9696 9.84 14.8086 10.875 14.8086H12.75C13.2425 14.8086 13.7301 14.9056 14.1851 15.094C14.64 15.2825 15.0534 15.5587 15.4017 15.9069C15.7499 16.2552 16.0261 16.6686 16.2145 17.1235C16.403 17.5785 16.5 18.0661 16.5 18.5586V21.1836C16.5 22.2186 15.66 23.0586 14.625 23.0586H4.875C4.37772 23.0586 3.90081 22.861 3.54917 22.5094C3.19754 22.1578 3 21.6809 3 21.1836V9.18359Z" fill="#2F5698"/>
<path d="M10.4987 11.059C10.5005 9.79755 10.0462 8.57796 9.21973 7.625C10.893 8.06496 12.4194 8.94148 13.6428 10.1649C14.8663 11.3883 15.7428 12.9147 16.1827 14.588C15.2298 13.7615 14.0102 13.3072 12.7487 13.309H10.8737C10.7743 13.309 10.6789 13.2695 10.6086 13.1992C10.5382 13.1288 10.4987 13.0335 10.4987 12.934V11.059Z" fill="#2F5698"/>
</svg>
