<svg width="24" height="25" viewBox="0 0 24 25" fill="none" xmlns="http://www.w3.org/2000/svg">
<path fill-rule="evenodd" clip-rule="evenodd" d="M8.25 7.30859C8.25 6.31403 8.64509 5.3602 9.34835 4.65694C10.0516 3.95368 11.0054 3.55859 12 3.55859C12.9946 3.55859 13.9484 3.95368 14.6517 4.65694C15.3549 5.3602 15.75 6.31403 15.75 7.30859C15.75 8.30316 15.3549 9.25698 14.6517 9.96024C13.9484 10.6635 12.9946 11.0586 12 11.0586C11.0054 11.0586 10.0516 10.6635 9.34835 9.96024C8.64509 9.25698 8.25 8.30316 8.25 7.30859ZM15.75 10.3086C15.75 9.51294 16.0661 8.74988 16.6287 8.18727C17.1913 7.62466 17.9544 7.30859 18.75 7.30859C19.5456 7.30859 20.3087 7.62466 20.8713 8.18727C21.4339 8.74988 21.75 9.51294 21.75 10.3086C21.75 11.1042 21.4339 11.8673 20.8713 12.4299C20.3087 12.9925 19.5456 13.3086 18.75 13.3086C17.9544 13.3086 17.1913 12.9925 16.6287 12.4299C16.0661 11.8673 15.75 11.1042 15.75 10.3086ZM2.25 10.3086C2.25 9.51294 2.56607 8.74988 3.12868 8.18727C3.69129 7.62466 4.45435 7.30859 5.25 7.30859C6.04565 7.30859 6.80871 7.62466 7.37132 8.18727C7.93393 8.74988 8.25 9.51294 8.25 10.3086C8.25 11.1042 7.93393 11.8673 7.37132 12.4299C6.80871 12.9925 6.04565 13.3086 5.25 13.3086C4.45435 13.3086 3.69129 12.9925 3.12868 12.4299C2.56607 11.8673 2.25 11.1042 2.25 10.3086ZM6.31 15.6756C6.91995 14.7196 7.76108 13.9329 8.75562 13.388C9.75016 12.8432 10.866 12.558 12 12.5586C12.9498 12.5577 13.8891 12.7575 14.7564 13.1448C15.6237 13.532 16.3994 14.0981 17.0327 14.806C17.6661 15.5138 18.1428 16.3474 18.4317 17.2522C18.7205 18.1571 18.815 19.1127 18.709 20.0566C18.696 20.1739 18.6556 20.2864 18.591 20.3851C18.5263 20.4838 18.4393 20.5658 18.337 20.6246C16.4086 21.7311 14.2233 22.3118 12 22.3086C9.695 22.3086 7.53 21.6966 5.663 20.6246C5.56069 20.5658 5.47368 20.4838 5.40904 20.3851C5.34441 20.2864 5.30396 20.1739 5.291 20.0566C5.12305 18.5232 5.48246 16.9784 6.31 15.6766V15.6756Z" fill="#2F5698"/>
<path d="M5.08208 14.813C4.09584 16.3354 3.63633 18.1393 3.77408 19.948C3.17359 19.8569 2.58299 19.7096 2.01008 19.508L1.89508 19.468C1.79248 19.4316 1.70263 19.3662 1.63643 19.2798C1.57023 19.1933 1.53051 19.0895 1.52208 18.981L1.51208 18.86C1.47169 18.358 1.53284 17.8529 1.69188 17.375C1.85093 16.8971 2.10462 16.4562 2.4378 16.0785C2.77099 15.7008 3.17685 15.3941 3.63116 15.1766C4.08547 14.9592 4.57893 14.8355 5.08208 14.813ZM20.2261 19.948C20.3638 18.1393 19.9043 16.3354 18.9181 14.813C19.4212 14.8355 19.9147 14.9592 20.369 15.1766C20.8233 15.3941 21.2292 15.7008 21.5624 16.0785C21.8955 16.4562 22.1492 16.8971 22.3083 17.375C22.4673 17.8529 22.5285 18.358 22.4881 18.86L22.4781 18.981C22.4695 19.0894 22.4297 19.1929 22.3635 19.2792C22.2973 19.3654 22.2075 19.4306 22.1051 19.467L21.9901 19.507C21.4231 19.707 20.8341 19.856 20.2261 19.948Z" fill="#2F5698"/>
</svg>
