<svg width="32" height="33" viewBox="0 0 32 33" fill="none" xmlns="http://www.w3.org/2000/svg">
<path d="M23.9767 25.525C23.045 24.2915 21.8397 23.2912 20.4556 22.6029C19.0715 21.9145 17.5465 21.557 16.0007 21.5584C14.4549 21.557 12.9298 21.9145 11.5458 22.6029C10.1617 23.2912 8.95632 24.2915 8.02467 25.525M23.9767 25.525C25.7947 23.908 27.0768 21.7765 27.6556 19.4132C28.2343 17.0499 28.081 14.5665 27.216 12.2924C26.3509 10.0182 24.815 8.06075 22.8119 6.67958C20.8088 5.29841 18.4331 4.55878 16 4.55878C13.5669 4.55878 11.1912 5.29841 9.18814 6.67958C7.18504 8.06075 5.64911 10.0182 4.78405 12.2924C3.91899 14.5665 3.76567 17.0499 4.34443 19.4132C4.92318 21.7765 6.20667 23.908 8.02467 25.525M23.9767 25.525C21.782 27.4826 18.9415 28.5626 16.0007 28.5584C13.0594 28.5629 10.2197 27.4829 8.02467 25.525M20.0007 13.5584C20.0007 14.6192 19.5792 15.6367 18.8291 16.3868C18.079 17.137 17.0615 17.5584 16.0007 17.5584C14.9398 17.5584 13.9224 17.137 13.1722 16.3868C12.4221 15.6367 12.0007 14.6192 12.0007 13.5584C12.0007 12.4975 12.4221 11.4801 13.1722 10.73C13.9224 9.97981 14.9398 9.55838 16.0007 9.55838C17.0615 9.55838 18.079 9.97981 18.8291 10.73C19.5792 11.4801 20.0007 12.4975 20.0007 13.5584Z" stroke="white" stroke-width="1.5" stroke-linecap="round" stroke-linejoin="round"/>
</svg>
