<svg width="24" height="25" viewBox="0 0 24 25" fill="none" xmlns="http://www.w3.org/2000/svg">
<path fill-rule="evenodd" clip-rule="evenodd" d="M7.5 5.80859C7.5 5.01294 7.81607 4.24988 8.37868 3.68727C8.94129 3.12466 9.70435 2.80859 10.5 2.80859H13.5C14.2956 2.80859 15.0587 3.12466 15.6213 3.68727C16.1839 4.24988 16.5 5.01294 16.5 5.80859V6.01359C17.433 6.09859 18.357 6.21059 19.274 6.34759C20.728 6.56559 21.75 7.83059 21.75 9.2646V12.2976C21.75 13.5086 21.016 14.6496 19.814 15.0496C17.2938 15.8861 14.6554 16.3112 12 16.3086C9.27 16.3086 6.643 15.8666 4.186 15.0496C2.984 14.6496 2.25 13.5086 2.25 12.2976V9.2646C2.25 7.83059 3.272 6.56459 4.726 6.34759C5.64729 6.20982 6.57234 6.09844 7.5 6.01359V5.80859ZM15 5.80859V5.89859C13.0018 5.77724 10.9982 5.77724 9 5.89859V5.80859C9 5.41077 9.15804 5.02924 9.43934 4.74793C9.72064 4.46663 10.1022 4.30859 10.5 4.30859H13.5C13.8978 4.30859 14.2794 4.46663 14.5607 4.74793C14.842 5.02924 15 5.41077 15 5.80859ZM12 14.0586C12.1989 14.0586 12.3897 13.9796 12.5303 13.8389C12.671 13.6983 12.75 13.5075 12.75 13.3086C12.75 13.1097 12.671 12.9189 12.5303 12.7783C12.3897 12.6376 12.1989 12.5586 12 12.5586C11.8011 12.5586 11.6103 12.6376 11.4697 12.7783C11.329 12.9189 11.25 13.1097 11.25 13.3086C11.25 13.5075 11.329 13.6983 11.4697 13.8389C11.6103 13.9796 11.8011 14.0586 12 14.0586Z" fill="#2F5698"/>
<path d="M3 18.9581V16.1621C3.22782 16.2868 3.46646 16.3905 3.713 16.4721C6.38569 17.3595 9.18385 17.8106 12 17.8081C14.892 17.8081 17.68 17.3401 20.287 16.4731C20.539 16.3891 20.777 16.2841 21 16.1621V18.9581C21 20.4101 19.953 21.6861 18.477 21.8811C16.357 22.1631 14.195 22.3081 12 22.3081C9.83395 22.3085 7.67024 22.1659 5.523 21.8811C4.047 21.6861 3 20.4101 3 18.9581Z" fill="#2F5698"/>
</svg>
