<svg width="32" height="33" viewBox="0 0 32 33" fill="none" xmlns="http://www.w3.org/2000/svg">
<path d="M19.9961 18.5587H11.9961M17.4094 8.97199L14.5828 6.14532C14.3971 5.95939 14.1765 5.81188 13.9338 5.71122C13.6911 5.61055 13.4309 5.55871 13.1681 5.55865H5.99609C5.20044 5.55865 4.43738 5.87473 3.87477 6.43733C3.31216 6.99994 2.99609 7.76301 2.99609 8.55865V24.5587C2.99609 25.3543 3.31216 26.1174 3.87477 26.68C4.43738 27.2426 5.20044 27.5587 5.99609 27.5587H25.9961C26.7917 27.5587 27.5548 27.2426 28.1174 26.68C28.68 26.1174 28.9961 25.3543 28.9961 24.5587V12.5587C28.9961 11.763 28.68 10.9999 28.1174 10.4373C27.5548 9.87473 26.7917 9.55865 25.9961 9.55865H18.8241C18.2938 9.55819 17.7841 9.34717 17.4094 8.97199Z" stroke="white" stroke-width="2" stroke-linecap="round" stroke-linejoin="round"/>
</svg>
