<svg width="17" height="17" viewBox="0 0 17 17" fill="none" xmlns="http://www.w3.org/2000/svg">
<path d="M0.799359 0.0248135C0.691056 -0.00664949 0.576257 -0.00822092 0.467133 0.0202661C0.358009 0.0487531 0.258627 0.106237 0.179522 0.186623C0.100417 0.267009 0.0445376 0.367303 0.0178077 0.47687C-0.00892231 0.586438 -0.00550661 0.701196 0.0276925 0.80898L2.05436 7.39648H9.15103C9.31679 7.39648 9.47576 7.46233 9.59297 7.57954C9.71018 7.69675 9.77603 7.85572 9.77603 8.02148C9.77603 8.18724 9.71018 8.34621 9.59297 8.46342C9.47576 8.58063 9.31679 8.64648 9.15103 8.64648H2.05436L0.0276925 15.234C-0.00531046 15.3417 -0.00857594 15.4564 0.0182418 15.5658C0.0450595 15.6752 0.100963 15.7754 0.180036 15.8557C0.259109 15.9359 0.358411 15.9933 0.467433 16.0218C0.576456 16.0502 0.691143 16.0487 0.799359 16.0173C6.31183 14.4142 11.5101 11.8817 16.1702 8.52898C16.2507 8.4711 16.3163 8.39489 16.3616 8.30664C16.4068 8.2184 16.4304 8.12065 16.4304 8.02148C16.4304 7.92231 16.4068 7.82456 16.3616 7.73632C16.3163 7.64807 16.2507 7.57186 16.1702 7.51398C11.5102 4.16089 6.3119 1.62811 0.799359 0.0248135Z" fill="white"/>
</svg>
