<svg width="165" height="166" viewBox="0 0 165 166" fill="none" xmlns="http://www.w3.org/2000/svg">
<g clip-path="url(#clip0_802_2390)">
<path d="M83.882 30.8971C73.07 30.8971 62.5007 34.1228 53.5108 40.1663C44.521 46.2097 37.5142 54.7996 33.3766 64.8495C29.239 74.8994 28.1564 85.9581 30.2658 96.6271C32.3751 107.296 37.5816 117.096 45.2269 124.788C52.8721 132.48 62.6128 137.718 73.2171 139.84C83.8214 141.962 94.813 140.873 104.802 136.71C114.791 132.548 123.329 125.498 129.336 116.453C135.343 107.409 138.549 96.7751 138.549 85.8971C138.532 71.3152 132.768 57.3353 122.519 47.0243C112.271 36.7134 98.3755 30.9135 83.882 30.8971ZM83.882 136.969C73.8423 136.969 64.028 133.973 55.6802 128.361C47.3325 122.75 40.8262 114.773 36.9841 105.441C33.1421 96.1092 32.1368 85.8404 34.0955 75.9336C36.0542 66.0267 40.8888 56.9266 47.9879 49.7841C55.0871 42.6417 64.132 37.7776 73.9789 35.807C83.8257 33.8364 94.0322 34.8478 103.308 38.7132C112.583 42.5787 120.511 49.1247 126.089 57.5233C131.667 65.922 134.644 75.7961 134.644 85.8971C134.629 99.4374 129.276 112.419 119.759 121.993C110.243 131.568 97.3402 136.953 83.882 136.969Z" fill="#84BD47" fill-opacity="0.15"/>
<path d="M113.751 60.9252L67.5502 106.666L54.0582 92.3999C53.7005 92.026 53.2103 91.8097 52.6946 91.7983C52.1789 91.7869 51.6796 91.9813 51.3059 92.339C50.9322 92.6967 50.7143 93.1886 50.7 93.7074C50.6856 94.2262 50.8759 94.7296 51.2292 95.1077L66.0898 110.822C66.2683 111.011 66.4825 111.162 66.7199 111.267C66.9572 111.372 67.2129 111.428 67.4721 111.433H67.5053C68.0174 111.433 68.509 111.23 68.8739 110.868L116.489 63.7253C116.679 63.5461 116.831 63.3306 116.937 63.0913C117.043 62.8521 117.1 62.5939 117.106 62.332C117.111 62.0701 117.064 61.8097 116.968 61.5663C116.872 61.3229 116.728 61.1013 116.546 60.9145C116.363 60.7277 116.145 60.5796 115.905 60.4788C115.665 60.378 115.407 60.3266 115.146 60.3276C114.886 60.3286 114.628 60.382 114.389 60.4846C114.149 60.5872 113.932 60.737 113.751 60.9252Z" fill="#84BD47"/>
<path d="M148.038 144.58H104.637C118.377 139.451 129.887 129.626 137.156 116.823C144.424 104.02 146.988 89.0537 144.398 74.5413C141.809 60.0289 134.231 46.8942 122.99 37.4342C111.749 27.9742 97.5604 22.7909 82.9053 22.7909C68.2502 22.7909 54.0616 27.9742 42.8206 37.4342C31.5796 46.8942 24.0017 60.0289 21.4122 74.5413C18.8227 89.0537 21.3863 104.02 28.6548 116.823C35.9232 129.626 47.4339 139.451 61.1738 144.58H17.7724C17.4947 144.544 17.2124 144.567 16.9444 144.649C16.6764 144.731 16.4289 144.87 16.2184 145.056C16.0078 145.242 15.8392 145.471 15.7236 145.727C15.6081 145.984 15.5483 146.263 15.5483 146.544C15.5483 146.826 15.6081 147.105 15.7236 147.362C15.8392 147.618 16.0078 147.847 16.2184 148.033C16.4289 148.219 16.6764 148.358 16.9444 148.44C17.2124 148.522 17.4947 148.545 17.7724 148.509H148.038C148.316 148.545 148.598 148.522 148.866 148.44C149.134 148.358 149.382 148.219 149.592 148.033C149.803 147.847 149.971 147.618 150.087 147.362C150.203 147.105 150.262 146.826 150.262 146.544C150.262 146.263 150.203 145.984 150.087 145.727C149.971 145.471 149.803 145.242 149.592 145.056C149.382 144.87 149.134 144.731 148.866 144.649C148.598 144.567 148.316 144.544 148.038 144.58ZM24.3344 85.6516C24.3344 73.9966 27.7695 62.6033 34.2054 52.9126C40.6413 43.2218 49.789 35.6688 60.4915 31.2087C71.194 26.7485 82.9708 25.5815 94.3325 27.8553C105.694 30.1291 116.131 35.7415 124.322 43.9828C132.513 52.2241 138.092 62.7241 140.352 74.1552C142.612 85.5862 141.452 97.4348 137.019 108.203C132.586 118.97 125.078 128.174 115.446 134.649C105.814 141.124 94.4901 144.58 82.9058 144.58C67.3771 144.562 52.4894 138.348 41.5089 127.301C30.5285 116.253 24.3519 101.275 24.3344 85.6516ZM87.2987 17.6382C87.8779 17.6382 88.4441 17.4654 88.9257 17.1416C89.4073 16.8178 89.7826 16.3577 90.0043 15.8193C90.226 15.2809 90.284 14.6885 90.171 14.1169C90.058 13.5454 89.779 13.0204 89.3695 12.6083C88.9599 12.1962 88.4381 11.9156 87.87 11.8019C87.3019 11.6882 86.7131 11.7466 86.1779 11.9696C85.6428 12.1926 85.1854 12.5702 84.8636 13.0548C84.5418 13.5393 84.3701 14.109 84.3701 14.6917C84.3709 15.4729 84.6796 16.2219 85.2287 16.7743C85.7777 17.3267 86.5222 17.6374 87.2987 17.6382ZM87.2987 13.2185C87.5883 13.2185 87.8714 13.3049 88.1122 13.4668C88.353 13.6287 88.5406 13.8588 88.6515 14.128C88.7623 14.3972 88.7913 14.6934 88.7348 14.9791C88.6783 15.2649 88.5388 15.5274 88.3341 15.7335C88.1293 15.9395 87.8684 16.0798 87.5843 16.1366C87.3003 16.1935 87.0059 16.1643 86.7383 16.0528C86.4707 15.9413 86.242 15.7525 86.0811 15.5102C85.9202 15.2679 85.8344 14.9831 85.8344 14.6917C85.8346 14.3011 85.989 13.9265 86.2635 13.6503C86.5381 13.3741 86.9104 13.2188 87.2987 13.2185ZM155.442 66.9908C155.055 66.9908 154.678 67.106 154.357 67.3219C154.036 67.5377 153.786 67.8445 153.638 68.2034C153.49 68.5624 153.451 68.9573 153.527 69.3383C153.602 69.7194 153.788 70.0694 154.061 70.3441C154.334 70.6188 154.682 70.8059 155.061 70.8817C155.439 70.9575 155.832 70.9186 156.189 70.7699C156.546 70.6212 156.85 70.3694 157.065 70.0464C157.28 69.7234 157.394 69.3436 157.394 68.9551C157.393 68.4343 157.188 67.935 156.822 67.5667C156.456 67.1985 155.959 66.9914 155.442 66.9908ZM155.442 69.9373C155.249 69.9373 155.06 69.8797 154.899 69.7717C154.739 69.6638 154.614 69.5104 154.54 69.331C154.466 69.1515 154.447 68.954 154.484 68.7635C154.522 68.573 154.615 68.398 154.751 68.2606C154.888 68.1233 155.062 68.0297 155.251 67.9919C155.441 67.954 155.637 67.9734 155.815 68.0477C155.994 68.1221 156.146 68.248 156.253 68.4095C156.361 68.571 156.418 68.7609 156.418 68.9551C156.418 69.2155 156.315 69.4652 156.132 69.6493C155.949 69.8334 155.7 69.937 155.442 69.9373ZM127.811 3.80566C127.424 3.80566 127.047 3.92087 126.726 4.13671C126.405 4.35254 126.155 4.65932 126.007 5.01825C125.859 5.37718 125.82 5.77213 125.896 6.15316C125.971 6.5342 126.157 6.8842 126.43 7.15891C126.703 7.43362 127.051 7.6207 127.43 7.69649C127.808 7.77228 128.201 7.73339 128.558 7.58471C128.914 7.43604 129.219 7.18427 129.434 6.86125C129.648 6.53822 129.763 6.15845 129.763 5.76995C129.762 5.24915 129.557 4.74983 129.191 4.38156C128.825 4.0133 128.328 3.80618 127.811 3.80566ZM127.811 6.75209C127.617 6.75209 127.429 6.69449 127.268 6.58657C127.108 6.47865 126.983 6.32526 126.909 6.1458C126.835 5.96634 126.815 5.76886 126.853 5.57834C126.891 5.38783 126.984 5.21283 127.12 5.07547C127.257 4.93811 127.431 4.84457 127.62 4.80668C127.809 4.76878 128.006 4.78823 128.184 4.86257C128.363 4.9369 128.515 5.06279 128.622 5.2243C128.729 5.38581 128.787 5.5757 128.787 5.76995C128.786 6.03035 128.684 6.28001 128.501 6.46414C128.318 6.64827 128.069 6.75183 127.811 6.75209ZM158.398 15.2643C158.011 15.2643 157.634 15.3795 157.313 15.5954C156.992 15.8112 156.742 16.118 156.594 16.4769C156.446 16.8358 156.407 17.2308 156.483 17.6118C156.558 17.9929 156.744 18.3429 157.017 18.6176C157.29 18.8923 157.638 19.0794 158.017 19.1552C158.395 19.2309 158.788 19.192 159.145 19.0434C159.501 18.8947 159.806 18.6429 160.021 18.3199C160.235 17.9969 160.35 17.6171 160.35 17.2286C160.349 16.7078 160.144 16.2085 159.778 15.8402C159.411 15.472 158.915 15.2648 158.398 15.2643ZM158.398 18.2108C158.204 18.2108 158.016 18.1532 157.855 18.0452C157.695 17.9373 157.57 17.7839 157.496 17.6045C157.422 17.425 157.402 17.2275 157.44 17.037C157.478 16.8465 157.571 16.6715 157.707 16.5341C157.844 16.3968 158.018 16.3032 158.207 16.2653C158.396 16.2274 158.593 16.2469 158.771 16.3212C158.949 16.3956 159.102 16.5214 159.209 16.683C159.316 16.8445 159.374 17.0344 159.374 17.2286C159.373 17.489 159.271 17.7387 159.088 17.9228C158.905 18.1069 158.656 18.2105 158.398 18.2108ZM30.4892 30.3235C30.4892 29.935 30.3747 29.5552 30.1602 29.2322C29.9457 28.9092 29.6408 28.6574 29.284 28.5088C28.9273 28.3601 28.5347 28.3212 28.156 28.397C27.7773 28.4728 27.4294 28.6599 27.1563 28.9346C26.8833 29.2093 26.6973 29.5593 26.622 29.9403C26.5467 30.3213 26.5853 30.7163 26.7331 31.0752C26.8809 31.4341 27.1311 31.7409 27.4522 31.9568C27.7733 32.1726 28.1507 32.2878 28.5369 32.2878C29.0545 32.2873 29.5508 32.0802 29.9168 31.7119C30.2829 31.3436 30.4887 30.8443 30.4892 30.3235ZM27.5607 30.3235C27.5607 30.1293 27.6179 29.9394 27.7252 29.7779C27.8325 29.6164 27.9849 29.4905 28.1633 29.4161C28.3417 29.3418 28.538 29.3224 28.7273 29.3602C28.9167 29.3981 29.0906 29.4917 29.2271 29.629C29.3637 29.7664 29.4566 29.9414 29.4943 30.1319C29.532 30.3224 29.5126 30.5199 29.4388 30.6994C29.3649 30.8788 29.2397 31.0322 29.0792 31.1401C28.9187 31.2481 28.7299 31.3057 28.5369 31.3057C28.278 31.3054 28.0299 31.2018 27.8469 31.0177C27.6639 30.8336 27.5609 30.5839 27.5607 30.3235Z" fill="#84BD47"/>
<path d="M11.5345 67.0017L12.9861 65.0806L12.0694 64.5581L11.1371 66.709H11.1069L10.16 64.5738L9.22772 65.111L10.6637 66.9869V67.0174L8.41748 66.7247V67.7697L10.6783 67.478V67.5084L9.22772 69.3834L10.0975 69.9373L11.0913 67.7697H11.1215L12.0382 69.9216L13.0007 69.3686L11.5345 67.5242V67.4927L13.8402 67.7697V66.7247L11.5345 67.0321V67.0017ZM12.7781 6.41621L11.9425 7.49558L12.4433 7.81478L13.0153 6.56648H13.0329L13.561 7.80594L14.1155 7.48675L13.2711 6.42505V6.40737L14.5987 6.56648V5.96442L13.2711 6.14219V6.12451L14.1067 5.01764L13.5786 4.7171L13.0427 5.95559H13.0241L12.4794 4.72594L11.9425 5.03532L12.7693 6.11567V6.13335L11.4759 5.96442V6.56648L12.7781 6.39853V6.41621ZM64.6558 6.47121V5.44585L62.394 5.74737V5.71692L63.8173 3.83317L62.9182 3.3205L62.0045 5.43112H61.9742L61.0459 3.33523L60.1312 3.86362L61.5398 5.70219V5.73264L59.3365 5.44585V6.47121L61.5545 6.18442V6.21487L60.1312 8.05344L60.9853 8.59657L61.9596 6.47121H61.9889L62.8879 8.58085L63.8319 8.03871L62.394 6.2296V6.19916L64.6558 6.47121ZM136.458 35.4886L137.686 33.8632L136.91 33.4212L136.122 35.2411H136.095L135.295 33.434L134.505 33.8887L135.721 35.4759V35.5014L133.821 35.2539V36.1378L135.733 35.8913V35.9178L134.505 37.503L135.242 37.9715L136.083 36.1378H136.108L136.883 37.9587L137.698 37.4902L136.458 35.9306V35.9041L138.408 36.1378V35.2539L136.458 35.5142V35.4886Z" fill="#84BD47" fill-opacity="0.15"/>
<path d="M2.85814 148.509C3.93641 148.509 4.81052 147.629 4.81052 146.544C4.81052 145.46 3.93641 144.58 2.85814 144.58C1.77987 144.58 0.905762 145.46 0.905762 146.544C0.905762 147.629 1.77987 148.509 2.85814 148.509Z" fill="#84BD47"/>
<path d="M11.6436 144.58H8.71508C8.19727 144.58 7.70068 144.787 7.33453 145.155C6.96839 145.524 6.7627 146.023 6.7627 146.544C6.7627 147.065 6.96839 147.565 7.33453 147.933C7.70068 148.302 8.19727 148.509 8.71508 148.509H11.6436C12.1615 148.509 12.658 148.302 13.0242 147.933C13.3903 147.565 13.596 147.065 13.596 146.544C13.596 146.023 13.3903 145.524 13.0242 145.155C12.658 144.787 12.1615 144.58 11.6436 144.58ZM157.096 144.58H154.167C153.65 144.58 153.153 144.787 152.787 145.155C152.421 145.524 152.215 146.023 152.215 146.544C152.215 147.065 152.421 147.565 152.787 147.933C153.153 148.302 153.65 148.509 154.167 148.509H157.096C157.614 148.509 158.11 148.302 158.477 147.933C158.843 147.565 159.048 147.065 159.048 146.544C159.048 146.023 158.843 145.524 158.477 145.155C158.11 144.787 157.614 144.58 157.096 144.58Z" fill="#84BD47"/>
<path d="M162.953 148.509C164.032 148.509 164.906 147.629 164.906 146.544C164.906 145.46 164.032 144.58 162.953 144.58C161.875 144.58 161.001 145.46 161.001 146.544C161.001 147.629 161.875 148.509 162.953 148.509Z" fill="#84BD47"/>
<path d="M116.247 152.437H108.137C107.645 152.476 107.186 152.699 106.851 153.063C106.516 153.427 106.33 153.905 106.33 154.402C106.33 154.898 106.516 155.376 106.851 155.74C107.186 156.104 107.645 156.327 108.137 156.366H116.247C116.738 156.327 117.198 156.104 117.533 155.74C117.868 155.376 118.054 154.898 118.054 154.402C118.054 153.905 117.868 153.427 117.533 153.063C117.198 152.699 116.738 152.476 116.247 152.437ZM57.6754 152.437H49.5652C49.0735 152.476 48.6143 152.699 48.2793 153.063C47.9444 153.427 47.7583 153.905 47.7583 154.402C47.7583 154.898 47.9444 155.376 48.2793 155.74C48.6143 156.104 49.0735 156.327 49.5652 156.366H57.6754C58.1671 156.327 58.6263 156.104 58.9612 155.74C59.2962 155.376 59.4823 154.898 59.4823 154.402C59.4823 153.905 59.2962 153.427 58.9612 153.063C58.6263 152.699 58.1671 152.476 57.6754 152.437ZM102.43 152.437H63.3822C62.8644 152.437 62.3678 152.644 62.0016 153.013C61.6355 153.381 61.4298 153.881 61.4298 154.402C61.4298 154.923 61.6355 155.422 62.0016 155.791C62.3678 156.159 62.8644 156.366 63.3822 156.366H78.9427V158.33H71.1917C70.6739 158.33 70.1773 158.537 69.8112 158.905C69.445 159.274 69.2393 159.773 69.2393 160.294C69.2393 160.815 69.445 161.315 69.8112 161.683C70.1773 162.052 70.6739 162.259 71.1917 162.259H95.5965C96.1143 162.259 96.6109 162.052 96.977 161.683C97.3432 161.315 97.5489 160.815 97.5489 160.294C97.5489 159.773 97.3432 159.274 96.977 158.905C96.6109 158.537 96.1143 158.33 95.5965 158.33H86.8693V156.366H102.43C102.948 156.366 103.444 156.159 103.81 155.791C104.176 155.422 104.382 154.923 104.382 154.402C104.382 153.881 104.176 153.381 103.81 153.013C103.444 152.644 102.948 152.437 102.43 152.437Z" fill="#84BD47" fill-opacity="0.15"/>
</g>
<defs>
<clipPath id="clip0_802_2390">
<rect width="164" height="165" fill="white" transform="translate(0.905762 0.289612)"/>
</clipPath>
</defs>
</svg>
