<svg width="32" height="33" viewBox="0 0 32 33" fill="none" xmlns="http://www.w3.org/2000/svg">
<path d="M15 15.5587L15.0547 15.532C15.2256 15.4466 15.4175 15.412 15.6076 15.4323C15.7976 15.4525 15.9779 15.5268 16.127 15.6463C16.2761 15.7659 16.3879 15.9256 16.449 16.1067C16.5102 16.2878 16.5181 16.4826 16.472 16.668L15.528 20.4494C15.4815 20.6349 15.4893 20.8299 15.5503 21.0112C15.6113 21.1925 15.723 21.3525 15.8722 21.4723C16.0214 21.592 16.2018 21.6664 16.392 21.6867C16.5822 21.707 16.7742 21.6723 16.9453 21.5867L17 21.5587M28 16.5587C28 18.1346 27.6896 19.695 27.0866 21.1509C26.4835 22.6068 25.5996 23.9297 24.4853 25.044C23.371 26.1583 22.0481 27.0422 20.5922 27.6453C19.1363 28.2483 17.5759 28.5587 16 28.5587C14.4241 28.5587 12.8637 28.2483 11.4078 27.6453C9.95189 27.0422 8.62902 26.1583 7.51472 25.044C6.40042 23.9297 5.5165 22.6068 4.91345 21.1509C4.31039 19.695 4 18.1346 4 16.5587C4 13.3761 5.26428 10.3239 7.51472 8.07343C9.76516 5.823 12.8174 4.55872 16 4.55872C19.1826 4.55872 22.2348 5.823 24.4853 8.07343C26.7357 10.3239 28 13.3761 28 16.5587ZM16 11.5587H16.0107V11.5694H16V11.5587Z" stroke="white" stroke-width="1.5" stroke-linecap="round" stroke-linejoin="round"/>
</svg>
