<svg width="17" height="18" viewBox="0 0 17 18" fill="none" xmlns="http://www.w3.org/2000/svg">
<path d="M8.40576 3.91321V8.91321H12.1558M15.9058 8.91321C15.9058 9.89812 15.7118 10.8734 15.3349 11.7833C14.9579 12.6933 14.4055 13.5201 13.7091 14.2165C13.0126 14.9129 12.1858 15.4654 11.2759 15.8423C10.3659 16.2192 9.39068 16.4132 8.40576 16.4132C7.42085 16.4132 6.44558 16.2192 5.53564 15.8423C4.62569 15.4654 3.7989 14.9129 3.10246 14.2165C2.40602 13.5201 1.85358 12.6933 1.47667 11.7833C1.09975 10.8734 0.905762 9.89812 0.905762 8.91321C0.905762 6.92408 1.69594 5.01643 3.10246 3.60991C4.50898 2.20338 6.41664 1.41321 8.40576 1.41321C10.3949 1.41321 12.3025 2.20338 13.7091 3.60991C15.1156 5.01643 15.9058 6.92408 15.9058 8.91321Z" stroke="#454545" stroke-width="1.5" stroke-linecap="round" stroke-linejoin="round"/>
</svg>
