<svg width="24" height="25" viewBox="0 0 24 25" fill="none" xmlns="http://www.w3.org/2000/svg">
<path d="M11.9991 12.5513C11.8002 12.5513 11.6094 12.6303 11.4687 12.7709C11.3281 12.9116 11.2491 13.1024 11.2491 13.3013V13.3073C11.2491 13.7213 11.5851 14.0573 11.9991 14.0573H12.0051C12.204 14.0573 12.3947 13.9783 12.5354 13.8376C12.6761 13.6969 12.7551 13.5062 12.7551 13.3073V13.3013C12.7551 13.1024 12.6761 12.9116 12.5354 12.7709C12.3947 12.6303 12.204 12.5513 12.0051 12.5513H11.9991ZM11.9991 17.0523C11.8002 17.0523 11.6094 17.1313 11.4687 17.2719C11.3281 17.4126 11.2491 17.6034 11.2491 17.8023V17.8073C11.2491 18.2213 11.5841 18.5573 11.9991 18.5573H12.0041C12.203 18.5573 12.3937 18.4783 12.5344 18.3376C12.6751 18.1969 12.7541 18.0062 12.7541 17.8073V17.8023C12.7541 17.6034 12.6751 17.4126 12.5344 17.2719C12.3937 17.1313 12.203 17.0523 12.0041 17.0523H11.9991ZM8.99807 17.8023C8.99807 17.6034 9.07709 17.4126 9.21774 17.2719C9.35839 17.1313 9.54916 17.0523 9.74807 17.0523H9.75407C9.95298 17.0523 10.1437 17.1313 10.2844 17.2719C10.4251 17.4126 10.5041 17.6034 10.5041 17.8023V17.8083C10.5041 18.0072 10.4251 18.1979 10.2844 18.3386C10.1437 18.4793 9.95298 18.5583 9.75407 18.5583H9.74807C9.54916 18.5583 9.35839 18.4793 9.21774 18.3386C9.07709 18.1979 8.99807 18.0072 8.99807 17.8083V17.8023ZM7.49807 17.0523C7.29916 17.0523 7.10839 17.1313 6.96774 17.2719C6.82709 17.4126 6.74807 17.6034 6.74807 17.8023V17.8073C6.74807 18.2213 7.08407 18.5573 7.49807 18.5573H7.50307C7.70198 18.5573 7.89275 18.4783 8.0334 18.3376C8.17405 18.1969 8.25307 18.0062 8.25307 17.8073V17.8023C8.25307 17.6034 8.17405 17.4126 8.0334 17.2719C7.89275 17.1313 7.70198 17.0523 7.50307 17.0523H7.49807ZM13.4981 15.5553C13.4981 15.3564 13.5771 15.1656 13.7177 15.0249C13.8584 14.8843 14.0492 14.8053 14.2481 14.8053H14.2541C14.453 14.8053 14.6437 14.8843 14.7844 15.0249C14.9251 15.1656 15.0041 15.3564 15.0041 15.5553V15.5603C15.0041 15.7592 14.9251 15.9499 14.7844 16.0906C14.6437 16.2313 14.453 16.3103 14.2541 16.3103H14.2481C14.0492 16.3103 13.8584 16.2313 13.7177 16.0906C13.5771 15.9499 13.4981 15.7592 13.4981 15.5603V15.5553ZM14.2491 17.0523C14.0502 17.0523 13.8594 17.1313 13.7187 17.2719C13.5781 17.4126 13.4991 17.6034 13.4991 17.8023V17.8083C13.4991 18.2223 13.8341 18.5583 14.2491 18.5583H14.2541C14.453 18.5583 14.6437 18.4793 14.7844 18.3386C14.9251 18.1979 15.0041 18.0072 15.0041 17.8083V17.8023C15.0041 17.6034 14.9251 17.4126 14.7844 17.2719C14.6437 17.1313 14.453 17.0523 14.2541 17.0523H14.2491ZM15.7491 15.5533C15.7491 15.3544 15.8281 15.1636 15.9687 15.0229C16.1094 14.8823 16.3002 14.8033 16.4991 14.8033H16.5041C16.703 14.8033 16.8937 14.8823 17.0344 15.0229C17.1751 15.1636 17.2541 15.3544 17.2541 15.5533V15.5593C17.2541 15.7582 17.1751 15.9489 17.0344 16.0896C16.8937 16.2303 16.703 16.3093 16.5041 16.3093H16.4991C16.3002 16.3093 16.1094 16.2303 15.9687 16.0896C15.8281 15.9489 15.7491 15.7582 15.7491 15.5593V15.5533ZM13.4971 13.3013C13.4971 13.1024 13.5761 12.9116 13.7167 12.7709C13.8574 12.6303 14.0482 12.5513 14.2471 12.5513H16.4971C16.696 12.5513 16.8867 12.6303 17.0274 12.7709C17.1681 12.9116 17.2471 13.1024 17.2471 13.3013C17.2471 13.5002 17.1681 13.6909 17.0274 13.8316C16.8867 13.9723 16.696 14.0513 16.4971 14.0513H14.2471C14.0482 14.0513 13.8574 13.9723 13.7167 13.8316C13.5761 13.6909 13.4971 13.5002 13.4971 13.3013ZM6.74707 15.5513C6.74707 15.3524 6.82609 15.1616 6.96674 15.0209C7.10739 14.8803 7.29816 14.8013 7.49707 14.8013H11.9971C12.196 14.8013 12.3867 14.8803 12.5274 15.0209C12.6681 15.1616 12.7471 15.3524 12.7471 15.5513C12.7471 15.7502 12.6681 15.9409 12.5274 16.0816C12.3867 16.2223 12.196 16.3013 11.9971 16.3013H7.49707C7.29816 16.3013 7.10739 16.2223 6.96674 16.0816C6.82609 15.9409 6.74707 15.7502 6.74707 15.5513Z" fill="#2F5698"/>
<path fill-rule="evenodd" clip-rule="evenodd" d="M17.9991 3.55127C17.9991 3.35236 17.9201 3.16159 17.7794 3.02094C17.6387 2.88029 17.448 2.80127 17.2491 2.80127C17.0502 2.80127 16.8594 2.88029 16.7187 3.02094C16.5781 3.16159 16.4991 3.35236 16.4991 3.55127V5.05127H7.49907V3.55227C7.49907 3.35336 7.42005 3.16259 7.2794 3.02194C7.13875 2.88129 6.94798 2.80227 6.74907 2.80227C6.55016 2.80227 6.35939 2.88129 6.21874 3.02194C6.07809 3.16259 5.99907 3.35336 5.99907 3.55227V5.04927H5.24707C4.45142 5.04927 3.68836 5.36534 3.12575 5.92795C2.56314 6.49056 2.24707 7.25362 2.24707 8.04927V19.3013C2.24707 20.0969 2.56314 20.86 3.12575 21.4226C3.68836 21.9852 4.45142 22.3013 5.24707 22.3013H18.7471C19.5427 22.3013 20.3058 21.9852 20.8684 21.4226C21.431 20.86 21.7471 20.0969 21.7471 19.3013V8.05027C21.7471 7.25462 21.431 6.49156 20.8684 5.92895C20.3058 5.36634 19.5427 5.05027 18.7471 5.05027H17.9991V3.55127ZM3.74707 19.3013V11.8013C3.74707 11.4034 3.90511 11.0219 4.18641 10.7406C4.46771 10.4593 4.84925 10.3013 5.24707 10.3013H18.7471C19.1449 10.3013 19.5264 10.4593 19.8077 10.7406C20.089 11.0219 20.2471 11.4034 20.2471 11.8013V19.3013C20.2471 19.6991 20.089 20.0806 19.8077 20.3619C19.5264 20.6432 19.1449 20.8013 18.7471 20.8013H5.24707C4.84925 20.8013 4.46771 20.6432 4.18641 20.3619C3.90511 20.0806 3.74707 19.6991 3.74707 19.3013Z" fill="#2F5698"/>
</svg>
