<svg width="20" height="21" viewBox="0 0 20 21" fill="none" xmlns="http://www.w3.org/2000/svg">
<g clip-path="url(#clip0_888_28339)">
<path d="M6.2428 7.2002H5.6178C5.12052 7.2002 4.6436 7.39774 4.29197 7.74937C3.94034 8.101 3.7428 8.57791 3.7428 9.0752V15.3252C3.7428 15.8225 3.94034 16.2994 4.29197 16.651C4.6436 17.0027 5.12052 17.2002 5.6178 17.2002H11.8678C12.3651 17.2002 12.842 17.0027 13.1936 16.651C13.5453 16.2994 13.7428 15.8225 13.7428 15.3252V9.0752C13.7428 8.57791 13.5453 8.101 13.1936 7.74937C12.842 7.39774 12.3651 7.2002 11.8678 7.2002H11.2428M11.2428 4.7002L8.7428 2.2002M8.7428 2.2002L6.2428 4.7002M8.7428 2.2002V11.5752M13.7428 9.7002H14.3678C14.8651 9.7002 15.342 9.89774 15.6936 10.2494C16.0453 10.601 16.2428 11.0779 16.2428 11.5752V17.8252C16.2428 18.3225 16.0453 18.7994 15.6936 19.151C15.342 19.5027 14.8651 19.7002 14.3678 19.7002H8.1178C7.62052 19.7002 7.1436 19.5027 6.79197 19.151C6.44034 18.7994 6.2428 18.3225 6.2428 17.8252V17.2002" stroke="#A2A2A2" stroke-width="1.5" stroke-linecap="round" stroke-linejoin="round"/>
</g>
<defs>
<clipPath id="clip0_888_28339">
<rect width="20" height="20" fill="white" transform="translate(-0.00720215 0.950195)"/>
</clipPath>
</defs>
</svg>
