<svg width="36" height="36" viewBox="0 0 36 36" fill="none" xmlns="http://www.w3.org/2000/svg">
<rect width="36" height="36" rx="18" fill="#F1F1F1"/>
<path d="M18 23.625C19.3261 23.625 20.5979 23.0982 21.5355 22.1605C22.4732 21.2229 23 19.9511 23 18.625V17.375M18 23.625C16.6739 23.625 15.4021 23.0982 14.4645 22.1605C13.5268 21.2229 13 19.9511 13 18.625V17.375M18 23.625V26.75M14.875 26.75H21.125M18 21.125C17.337 21.125 16.7011 20.8616 16.2322 20.3928C15.7634 19.9239 15.5 19.288 15.5 18.625V11.75C15.5 11.087 15.7634 10.4511 16.2322 9.98223C16.7011 9.51339 17.337 9.25 18 9.25C18.663 9.25 19.2989 9.51339 19.7678 9.98223C20.2366 10.4511 20.5 11.087 20.5 11.75V18.625C20.5 19.288 20.2366 19.9239 19.7678 20.3928C19.2989 20.8616 18.663 21.125 18 21.125Z" stroke="black" stroke-width="1.5" stroke-linecap="round" stroke-linejoin="round"/>
</svg>
